<?xml version="1.0" encoding="utf-8"?>
<!-- Generator: Adobe Illustrator 18.1.1, SVG Export Plug-In . SVG Version: 6.00 Build 0)  -->
<svg version="1.1" id="OBJECTS" xmlns="http://www.w3.org/2000/svg" xmlns:xlink="http://www.w3.org/1999/xlink" x="0px" y="0px"
	 viewBox="0 0 684 194.1" enable-background="new 0 0 684 194.1" xml:space="preserve">
<g>
	<path fill-rule="evenodd" clip-rule="evenodd" fill="#69C8CE" d="M348.2,92.3c0.5,1,4.3,6.4,5.5,7.6c1.6,1.6-0.3,5.4-3.2,2.2
		c-0.1-0.1-0.3-0.2-0.4-0.4c-1.8-1.9-4.7-7.2-4.7-7.2L348.2,92.3z"/>
	<path fill-rule="evenodd" clip-rule="evenodd" fill="#53AFB5" d="M353.5,103c-0.7,0.5-1.7,0.5-3-0.9c-0.1-0.1-0.3-0.2-0.4-0.4
		c-1.4-1.5-3.6-5.3-4.4-6.7l0.9-0.7C346.9,94.3,353.5,103,353.5,103z"/>
	<polygon fill-rule="evenodd" clip-rule="evenodd" fill="#3CB1BD" points="336.2,89.6 346.5,89.8 349.1,129.9 331.9,129.7 	"/>
	<path fill-rule="evenodd" clip-rule="evenodd" fill="#69C8CE" d="M347.2,113.8c0.4,0.4,2.9,13.5,2.9,13.5l-20.2,2.3L347.2,113.8z"
		/>
	<path fill-rule="evenodd" clip-rule="evenodd" fill="#69C8CE" d="M340.5,109.9c0,0,7.9-7.3,7.4-7.2c-0.5,0,1.7,12.9,1.7,12.9
		l-16.2,14.1l2.4-14.7L340.5,109.9z"/>
	<polygon fill-rule="evenodd" clip-rule="evenodd" fill="#3CB1BD" points="334.6,119.1 329.9,129.6 333.8,129.7 348,102.7 	"/>
	<polygon fill-rule="evenodd" clip-rule="evenodd" fill="#69C8CE" points="347,96.6 348.2,102.4 329.9,129.6 331.2,125.6 334,112.9 
			"/>
	<polygon fill-rule="evenodd" clip-rule="evenodd" fill="#3CB1BD" points="345.5,92.3 349.9,93.4 333.4,115.2 333.6,111.8 	"/>
	<polygon fill-rule="evenodd" clip-rule="evenodd" fill="#69C8CE" points="333.6,111.8 349.9,93.4 346.6,89.7 343.1,89 341,89 
		338.6,89.1 334.3,104.3 	"/>
	<path fill-rule="evenodd" clip-rule="evenodd" fill="#63B9BC" d="M344.8,89.4l-1.8-0.4l-2,0l-1.3,0.1c0,0.1,0,0.3,0,0.4
		c0,1.5,1.1,2.7,2.6,2.7c1.4,0,2.6-1.2,2.6-2.7C344.8,89.5,344.8,89.4,344.8,89.4z"/>
	<path fill-rule="evenodd" clip-rule="evenodd" fill="#DD6B26" d="M333.2,68.2c2.4-1.8,0.4-6.1-1.6-8.3c0.2,1.2,0.3,2.2-0.2,3.3
		c0.2-0.3-0.9-1.6-1.2-1.8c0.3,2.2-2.3,6.1,0.8,7C332.3,68.7,333.2,68.2,333.2,68.2z"/>
	<path fill-rule="evenodd" clip-rule="evenodd" fill="#F48120" d="M331.6,59.9c0.2,1.1,0.3,2.1-0.2,3.2c0.1-0.2-0.5-1.2-1-1.6
		c0,0.1-0.1,0.2-0.1,0.3c0-0.1,0-0.3-0.1-0.5c0,0,0,0,0,0c0.2,1.6-1,3.9-0.7,5.5c0.1,0.1,0.3,0.1,0.5,0.2c1.2,0.4,2.1-0.1,2.1-0.1
		C334.1,65.3,333.1,62.2,331.6,59.9z"/>
	<path fill-rule="evenodd" clip-rule="evenodd" fill="#69C8CE" d="M332.6,72.3c-0.1,3.9-0.1,13,6,17.7l-2.8,3.1
		c-4-5.8-6-10.1-5.3-20.9L332.6,72.3z"/>
	<path fill-rule="evenodd" clip-rule="evenodd" fill="#53AFB5" d="M337.2,91.6l-1.4,1.6c-4-5.8-6-10.1-5.3-20.9l1,0
		C331.6,81.8,331.7,83.5,337.2,91.6z"/>
	<path fill-rule="evenodd" clip-rule="evenodd" fill="#50BABD" d="M333.1,70.7l0.3,0c0.1,0,0.2,0.1,0.2,0.2l0,1.8
		c0,0.1-0.1,0.2-0.2,0.2l-0.3,0c-0.1,0-0.2-0.1-0.2-0.2l0-1.8C332.9,70.8,333,70.7,333.1,70.7z"/>
	<path fill-rule="evenodd" clip-rule="evenodd" fill="#008895" d="M331.5,67.9l0.2,0c0.3,0,0.5,0.2,0.5,0.5l-0.1,7
		c0,0.3-0.2,0.5-0.5,0.5l-0.2,0c-0.3,0-0.5-0.2-0.5-0.5l0.1-7C330.9,68.1,331.2,67.9,331.5,67.9z"/>
	<path fill-rule="evenodd" clip-rule="evenodd" fill="#008895" d="M330.4,70.3l2.4,0l1.2-1.6l-4.8-0.1L330.4,70.3L330.4,70.3z
		 M331.6,70.3 M333.4,69.5 M331.6,68.6 M329.8,69.4"/>
	<path fill-rule="evenodd" clip-rule="evenodd" fill="#58C4C8" d="M330.9,70l1.4,0c0.5,0,0.9,0.4,0.9,0.9l0,2.6
		c0,0.5-0.4,0.9-0.9,0.9l-1.4,0c-0.5,0-0.9-0.4-0.9-0.9l0-2.6C329.9,70.4,330.4,70,330.9,70z"/>
	<path fill-rule="evenodd" clip-rule="evenodd" fill="#65C7CE" d="M330.9,70l1.4,0c0.1,0,0.2,0,0.3,0.1c0,0,0,0.1,0,0.1l0,2.6
		c0,0.5-0.4,0.9-0.9,0.9l-1.4,0c-0.1,0-0.2,0-0.3-0.1c0,0,0-0.1,0-0.1l0-2.6C329.9,70.4,330.4,70,330.9,70z"/>
	<path fill-rule="evenodd" clip-rule="evenodd" fill="#00A2B2" d="M329,67.8l5.1,0.1c0.4,0,0.6,0.3,0.6,0.7l0,0
		c0,0.4-0.3,0.6-0.7,0.6l-5.1-0.1c-0.4,0-0.6-0.3-0.6-0.7v0C328.4,68.1,328.7,67.8,329,67.8z"/>
	<path fill-rule="evenodd" clip-rule="evenodd" fill="#008895" d="M334.8,68.5c0,0.3-0.3,0.6-0.7,0.6l-5.1-0.1
		c-0.4,0-0.6-0.3-0.6-0.6L334.8,68.5z"/>
	<polygon fill-rule="evenodd" clip-rule="evenodd" fill="#00747D" points="333.7,82.8 336.6,82.1 339.5,81.3 339.6,82.1 339.7,82.8 
		336.7,82.8 	"/>
	<polygon fill-rule="evenodd" clip-rule="evenodd" fill="#00747D" points="350.8,83.1 348,82.2 345.2,81.4 345,82.1 344.9,82.9 
		347.9,83 	"/>
	<path fill-rule="evenodd" clip-rule="evenodd" fill="#0098A3" d="M342.1,87L342.1,87c-2.2,0-3.6,0.5-3.7-2.8
		c-0.2-3.3,1.6-4.1,3.8-4.1l0,0c2.2,0.1,3.9,1,3.7,4.2C345.6,87.5,344.3,87,342.1,87z"/>
	<g>
		<path fill-rule="evenodd" clip-rule="evenodd" fill="#5AADB1" d="M342.2,87.5L342.2,87.5c0.9,0,1.6,0.7,1.5,1.6l0,0.7
			c0,0.9-0.7,1.6-1.6,1.5l0,0c-0.9,0-1.6-0.7-1.5-1.6l0-0.7C340.6,88.2,341.3,87.5,342.2,87.5z"/>
		<path fill-rule="evenodd" clip-rule="evenodd" fill="#519FA3" d="M343.7,90.1l0-1.1c-0.5,0.2-1,0.2-1.6,0.2l0,2
			C343,91.3,343.7,90.8,343.7,90.1z"/>
	</g>
	<path fill-rule="evenodd" clip-rule="evenodd" fill="#69C8CE" d="M342.2,80.1c2,0,3.6,2.2,3.5,4.8c0,2.6-1.7,4.6-3.7,4.7
		s-3.6-2.2-3.5-4.7C338.5,82.1,340.2,80,342.2,80.1z"/>
	<path fill-rule="evenodd" clip-rule="evenodd" fill="#5EBCC1" d="M342.2,80.1c2,0,3.6,2.2,3.5,4.8c0,2.6-1.7,4.6-3.7,4.7
		c0,0,0,0,0,0L342.2,80.1C342.2,80.1,342.2,80.1,342.2,80.1z"/>
	<path fill-rule="evenodd" clip-rule="evenodd" fill="#0098A3" d="M342.1,82.2c0.7,1.7,2.7,3.2,3.6,3.2c0-0.2-0.1,2.2,0-0.6
		c0.1-2.8-1-4.6-3.5-4.7c-0.1,0-4,0.3-3.7,4.6c0,0.2,0,0.4,0,0.6C339.4,85.3,341.4,83.8,342.1,82.2z"/>
	<path fill-rule="evenodd" clip-rule="evenodd" fill="#00808A" d="M338.4,82.7c0-1,0.2-1.9,0.2-1.9c0-0.6,1.8-0.9,3.6-0.9v0
		c1.8,0,3.6,0.3,3.6,1c0,0,0.1,0.9,0.1,1.9c-0.9-0.6-2.2-0.9-3.7-1l0,0C340.6,81.8,339.3,82.1,338.4,82.7z"/>
	<path fill-rule="evenodd" clip-rule="evenodd" fill="#007982" d="M338.4,82.7c0-0.2,0-0.3,0-0.5c1.3-1.1,6.2-1,7.5,0.1
		c0,0.2,0,0.2,0,0.4c-0.9-0.6-2.2-0.9-3.7-1l0,0C340.6,81.8,339.3,82.1,338.4,82.7z"/>
	<polygon fill-rule="evenodd" clip-rule="evenodd" fill="#00747D" points="342.2,74.5 342.7,77.4 342.9,80.4 342.1,80.8 341.4,80.4 
		341.7,77.1 	"/>
	<polygon fill-rule="evenodd" clip-rule="evenodd" fill="#00747D" points="337.3,75.5 339.3,77.8 341.1,80.1 340.6,80.9 339.8,80.9 
		338.3,77.9 	"/>
	<polygon fill-rule="evenodd" clip-rule="evenodd" fill="#00747D" points="347.3,75.6 345.6,77.4 343.3,80.1 343.7,80.7 344.6,80.9 
		345.9,78.5 	"/>
	<polygon fill-rule="evenodd" clip-rule="evenodd" fill="#00747D" points="333.7,78.8 336.8,79.6 339.5,80.4 339.4,81.3 338.9,81.9 
		335.9,80.2 	"/>
	<polygon fill-rule="evenodd" clip-rule="evenodd" fill="#00747D" points="350.7,79 348.2,79.6 344.9,80.4 344.9,81.2 345.5,81.9 
		348.1,80.6 	"/>
	<polygon fill-rule="evenodd" clip-rule="evenodd" fill="#69C8CE" points="339.6,89.1 335.7,86.9 330.5,93 335.5,98.4 	"/>
	<polygon fill-rule="evenodd" clip-rule="evenodd" fill="#3CB1BD" points="339.7,89.1 333.9,108 333.5,96.2 	"/>
	<polygon fill-rule="evenodd" clip-rule="evenodd" fill="#00808A" points="352.1,92.1 356.8,95.1 348.9,107 344.4,103.4 	"/>
	<polygon fill-rule="evenodd" clip-rule="evenodd" fill="#00747D" points="355.5,94.3 356.8,95.1 348.9,107 347.7,106.1 	"/>
	<path fill-rule="evenodd" clip-rule="evenodd" fill="#65C7CE" d="M353.4,99.3l1.1,0.7c0.4,0.3,0.5,0.8,0.3,1.2l-1.4,2.2
		c-0.3,0.4-0.8,0.5-1.2,0.3l-1.1-0.7c-0.4-0.3-0.5-0.8-0.3-1.2l1.4-2.2C352.4,99.2,352.9,99,353.4,99.3z"/>
	<polygon fill-rule="evenodd" clip-rule="evenodd" fill="#3CB1BD" points="347.8,91.1 346.6,89.7 336.8,104.4 341.7,98.5 
		346.6,92.6 346.8,92.4 	"/>
	<polygon fill-rule="evenodd" clip-rule="evenodd" fill="#3CB1BD" points="349.9,116.6 349.1,112.5 333.5,129.7 	"/>
	<polygon fill-rule="evenodd" clip-rule="evenodd" fill="#3CB1BD" points="335.7,86.9 334.8,87.9 333.5,89.4 330.5,93 333.9,90.2 
		335.5,89 336.6,88.1 337.1,87.7 	"/>
	
		<rect x="329.4" y="131.2" transform="matrix(-0.9999 -1.351879e-02 1.351879e-02 -0.9999 678.1376 287.4992)" fill-rule="evenodd" clip-rule="evenodd" fill="#4FA1A5" width="21.3" height="20.6"/>
	
		<rect x="330.4" y="130.8" transform="matrix(-0.9999 -1.352070e-02 1.352070e-02 -0.9999 678.1295 287.8902)" fill-rule="evenodd" clip-rule="evenodd" fill="#53AFB5" width="19.2" height="21.6"/>
	<g>
		
			<rect x="327.5" y="134.9" transform="matrix(-0.9999 -1.351593e-02 1.351593e-02 -0.9999 678.3474 277.1687)" fill-rule="evenodd" clip-rule="evenodd" fill="#69C8CE" width="25.3" height="2.9"/>
		
			<rect x="339.4" y="124.4" transform="matrix(1.354935e-02 -0.9999 0.9999 1.354935e-02 198.4976 475.2206)" fill-rule="evenodd" clip-rule="evenodd" fill="#61B9BC" width="1.4" height="25.3"/>
	</g>
	
		<rect x="324.9" y="150.9" transform="matrix(-0.9999 -1.351187e-02 1.351187e-02 -0.9999 678.2117 310.1214)" fill-rule="evenodd" clip-rule="evenodd" fill="#69C8CE" width="30.5" height="3.8"/>
	
		<rect x="339.2" y="138.5" transform="matrix(1.347056e-02 -0.9999 0.9999 1.347056e-02 181.8491 491.7624)" fill-rule="evenodd" clip-rule="evenodd" fill="#61B9BC" width="1.9" height="30.5"/>
	<g>
		
			<rect x="334.1" y="139.2" transform="matrix(-0.9999 -1.345776e-02 1.345776e-02 -0.9999 668.9007 289.5541)" fill-rule="evenodd" clip-rule="evenodd" fill="#2E9298" width="2.6" height="6.6"/>
		
			<rect x="338.7" y="139.3" transform="matrix(-0.9999 -1.353548e-02 1.353548e-02 -0.9999 678.0894 289.7663)" fill-rule="evenodd" clip-rule="evenodd" fill="#2E9298" width="2.6" height="6.6"/>
		
			<rect x="343.3" y="139.3" transform="matrix(-0.9999 -1.349686e-02 1.349686e-02 -0.9999 687.2952 289.9398)" fill-rule="evenodd" clip-rule="evenodd" fill="#2E9298" width="2.6" height="6.6"/>
	</g>
	
		<rect x="328.9" y="129.8" transform="matrix(-0.9999 -1.352070e-02 1.352070e-02 -0.9999 678.5732 266.0138)" fill-rule="evenodd" clip-rule="evenodd" fill="#69C8CE" width="22.7" height="1.9"/>
	<g>
		
			<rect x="316.4" y="154.7" transform="matrix(-0.9999 -1.351640e-02 1.351640e-02 -0.9999 678.0563 317.7529)" fill-rule="evenodd" clip-rule="evenodd" fill="#69C8CE" width="47.4" height="3.8"/>
		
			<rect x="339.1" y="133.8" transform="matrix(1.346984e-02 -0.9999 0.9999 1.346984e-02 177.9832 495.475)" fill-rule="evenodd" clip-rule="evenodd" fill="#61B9BC" width="1.9" height="47.4"/>
	</g>
</g>
<g>
	
		<rect x="381.2" y="80" transform="matrix(-0.9863 -0.1651 0.1651 -0.9863 764.2105 232.6857)" fill-rule="evenodd" clip-rule="evenodd" fill="#D0D2D3" width="21.1" height="9.2"/>
	
		<rect x="371.7" y="88.1" transform="matrix(-0.9863 -0.1651 0.1651 -0.9863 744.0604 312.014)" fill-rule="evenodd" clip-rule="evenodd" fill="#D0D2D3" width="26.5" height="73.9"/>
	<g>
		<path fill-rule="evenodd" clip-rule="evenodd" fill="#E6E7E8" d="M378.2,86.2l26.1,4.4c0.5,0.1,0.8,0.5,0.7,1l0,0
			c-0.1,0.5-0.5,0.8-1,0.7L377.9,88c-0.5-0.1-0.8-0.5-0.7-1v0C377.3,86.5,377.7,86.1,378.2,86.2z"/>
		<path fill-rule="evenodd" clip-rule="evenodd" fill="#BBBDBF" d="M405.1,91.5C405.1,91.6,405.1,91.6,405.1,91.5L405.1,91.5
			c-0.1,0.6-0.6,0.9-1.2,0.8L378.1,88c-0.6-0.1-1-0.6-0.9-1l0,0c0,0,0-0.1,0-0.1L405.1,91.5z"/>
	</g>
	<g>
		<path fill-rule="evenodd" clip-rule="evenodd" fill="#E6E7E8" d="M381.6,77.3l22.1,3.7c0.5,0.1,0.8,0.5,0.7,1l0,0
			c-0.1,0.5-0.5,0.8-1,0.7l-22.1-3.7c-0.5-0.1-0.8-0.5-0.7-1l0,0C380.7,77.6,381.2,77.2,381.6,77.3z"/>
		<path fill-rule="evenodd" clip-rule="evenodd" fill="#BBBDBF" d="M404.4,81.9C404.4,82,404.4,82,404.4,81.9L404.4,81.9
			c-0.1,0.6-0.5,0.9-1,0.8l-22.1-3.7c-0.5-0.1-0.8-0.5-0.7-1l0,0c0,0,0-0.1,0-0.1L404.4,81.9z"/>
	</g>
	<g>
		<path fill-rule="evenodd" clip-rule="evenodd" fill="#E6E7E8" d="M373.3,115.5l26.1,4.4c0.5,0.1,0.8,0.5,0.7,1l0,0
			c-0.1,0.5-0.5,0.8-1,0.7l-26.1-4.4c-0.5-0.1-0.8-0.5-0.7-1l0,0C372.4,115.7,372.8,115.4,373.3,115.5z"/>
		<path fill-rule="evenodd" clip-rule="evenodd" fill="#BBBDBF" d="M400.2,120.8C400.2,120.8,400.2,120.9,400.2,120.8L400.2,120.8
			c-0.1,0.6-0.6,0.9-1.2,0.8l-25.8-4.3c-0.6-0.1-1-0.6-0.9-1l0,0c0,0,0-0.1,0-0.1L400.2,120.8z"/>
	</g>
	<g>
		<path fill-rule="evenodd" clip-rule="evenodd" fill="#E6E7E8" d="M370.9,130.1l26.1,4.4c0.5,0.1,0.8,0.5,0.7,1v0
			c-0.1,0.5-0.5,0.8-1,0.7l-26.1-4.4c-0.5-0.1-0.8-0.5-0.7-1v0C369.9,130.4,370.4,130,370.9,130.1z"/>
		<path fill-rule="evenodd" clip-rule="evenodd" fill="#BBBDBF" d="M397.7,135.4C397.7,135.5,397.7,135.5,397.7,135.4L397.7,135.4
			c-0.1,0.6-0.6,0.9-1.2,0.8l-25.8-4.3c-0.6-0.1-1-0.6-0.9-1l0,0c0,0,0-0.1,0-0.1L397.7,135.4z"/>
	</g>
	<g>
		<path fill-rule="evenodd" clip-rule="evenodd" fill="#E6E7E8" d="M368.4,144.8l26.1,4.4c0.5,0.1,0.8,0.5,0.7,1l0,0
			c-0.1,0.5-0.5,0.8-1,0.7l-26.1-4.4c-0.5-0.1-0.8-0.5-0.7-1l0,0C367.5,145,367.9,144.7,368.4,144.8z"/>
		<path fill-rule="evenodd" clip-rule="evenodd" fill="#BBBDBF" d="M395.3,150.1C395.3,150.1,395.3,150.1,395.3,150.1L395.3,150.1
			c-0.1,0.6-0.6,0.9-1.2,0.8l-25.8-4.3c-0.6-0.1-1-0.6-0.9-1l0,0c0,0,0-0.1,0-0.1L395.3,150.1z"/>
	</g>
	<g>
		<path fill-rule="evenodd" clip-rule="evenodd" fill="#6D6E70" d="M398.4,84.8l-0.8,4.7L401,90l0.8-4.7c0.2-1-0.5-1.9-1.4-2
			C399.4,83.2,398.5,83.8,398.4,84.8z"/>
		<path fill-rule="evenodd" clip-rule="evenodd" fill="#6D6E70" d="M394.3,84.1l-0.8,4.7l3.4,0.6l0.8-4.7c0.2-1-0.5-1.9-1.4-2
			C395.4,82.5,394.5,83.2,394.3,84.1z"/>
		<path fill-rule="evenodd" clip-rule="evenodd" fill="#6D6E70" d="M390.2,83.4l-0.8,4.7l3.4,0.6l0.8-4.7c0.2-1-0.5-1.9-1.4-2
			C391.3,81.8,390.4,82.5,390.2,83.4z"/>
		<path fill-rule="evenodd" clip-rule="evenodd" fill="#6D6E70" d="M386.2,82.8l-0.8,4.7l3.4,0.6l0.8-4.7c0.2-1-0.5-1.9-1.4-2
			C387.2,81.1,386.3,81.8,386.2,82.8z"/>
		<path fill-rule="evenodd" clip-rule="evenodd" fill="#6D6E70" d="M382.1,82.1l-0.8,4.7l3.4,0.6l0.8-4.7c0.2-1-0.5-1.9-1.4-2
			C383.2,80.4,382.3,81.1,382.1,82.1z"/>
	</g>
	<g>
		<g>
			<path fill-rule="evenodd" clip-rule="evenodd" fill="#929497" d="M398.4,84.8l-0.8,4.7l2.6,0.4l0.8-4.7c0.1-0.8-0.3-1.6-1-1.9
				C399.2,83.4,398.5,84,398.4,84.8z"/>
			<path fill-rule="evenodd" clip-rule="evenodd" fill="#929497" d="M396.9,89.3L396.9,89.3l0.8-4.7c0-0.1,0-0.1,0-0.2
				c0,0.1,0,0.1,0,0.2L396.9,89.3z"/>
		</g>
		<g>
			<path fill-rule="evenodd" clip-rule="evenodd" fill="#929497" d="M394.3,84.1l-0.8,4.7l2.6,0.4l0.8-4.7c0.1-0.8-0.3-1.6-1-1.9
				C395.1,82.7,394.4,83.3,394.3,84.1z"/>
			<path fill-rule="evenodd" clip-rule="evenodd" fill="#929497" d="M392.8,88.7L392.8,88.7l0.8-4.7c0-0.1,0-0.1,0-0.2
				c0,0.1,0,0.1,0,0.2L392.8,88.7z"/>
		</g>
		<g>
			<path fill-rule="evenodd" clip-rule="evenodd" fill="#929497" d="M390.2,83.4l-0.8,4.7l2.6,0.4l0.8-4.7c0.1-0.8-0.3-1.6-1-1.9
				C391.1,82,390.4,82.6,390.2,83.4z"/>
			<path fill-rule="evenodd" clip-rule="evenodd" fill="#929497" d="M388.7,88L388.7,88l0.8-4.7c0-0.1,0-0.1,0-0.2
				c0,0.1,0,0.1,0,0.2L388.7,88z"/>
		</g>
		<g>
			<path fill-rule="evenodd" clip-rule="evenodd" fill="#929497" d="M386.2,82.8l-0.8,4.7l2.6,0.4l0.8-4.7c0.1-0.8-0.3-1.6-1-1.9
				C387,81.3,386.3,81.9,386.2,82.8z"/>
			<path fill-rule="evenodd" clip-rule="evenodd" fill="#929497" d="M384.7,87.3L384.7,87.3l0.8-4.7c0-0.1,0-0.1,0-0.2
				c0,0.1,0,0.1,0,0.2L384.7,87.3z"/>
		</g>
		<path fill-rule="evenodd" clip-rule="evenodd" fill="#929497" d="M382.1,82.1l-0.8,4.7l2.6,0.4l0.8-4.7c0.1-0.8-0.3-1.6-1-1.9
			C382.9,80.6,382.2,81.2,382.1,82.1z"/>
	</g>
	<g>
		<path fill-rule="evenodd" clip-rule="evenodd" fill="#E6E7E8" d="M375.8,100.9l26.1,4.4c0.5,0.1,0.8,0.5,0.7,1l0,0
			c-0.1,0.5-0.5,0.8-1,0.7l-26.1-4.4c-0.5-0.1-0.8-0.5-0.7-1l0,0C374.8,101.1,375.3,100.8,375.8,100.9z"/>
		<path fill-rule="evenodd" clip-rule="evenodd" fill="#BBBDBF" d="M402.6,106.2C402.6,106.2,402.6,106.2,402.6,106.2L402.6,106.2
			c-0.1,0.6-0.6,0.9-1.2,0.8l-25.8-4.3c-0.6-0.1-1-0.6-0.9-1l0,0c0,0,0-0.1,0-0.1L402.6,106.2z"/>
	</g>
	<g>
		<path fill-rule="evenodd" clip-rule="evenodd" fill="#6D6E70" d="M381.6,92c0.2-1-0.5-1.9-1.4-2c-0.9-0.2-1.9,0.5-2,1.4l-1.6,9.6
			l3.4,0.6L381.6,92z"/>
		<path fill-rule="evenodd" clip-rule="evenodd" fill="#6D6E70" d="M385.8,92.7c0.2-1-0.5-1.9-1.4-2c-0.9-0.2-1.9,0.5-2,1.4
			l-1.6,9.6l3.4,0.6L385.8,92.7z"/>
		<path fill-rule="evenodd" clip-rule="evenodd" fill="#6D6E70" d="M389.9,93.4c0.2-1-0.5-1.9-1.4-2c-0.9-0.2-1.9,0.5-2,1.4
			l-1.6,9.6l3.4,0.6L389.9,93.4z"/>
		<path fill-rule="evenodd" clip-rule="evenodd" fill="#6D6E70" d="M394.1,94.1c0.2-1-0.5-1.9-1.4-2c-0.9-0.2-1.9,0.5-2,1.4
			l-1.6,9.6l3.4,0.6L394.1,94.1z"/>
		<path fill-rule="evenodd" clip-rule="evenodd" fill="#6D6E70" d="M398.3,94.8c0.2-1-0.5-1.9-1.4-2c-0.9-0.2-1.9,0.5-2,1.4
			l-1.6,9.6l3.4,0.6L398.3,94.8z"/>
		<path fill-rule="evenodd" clip-rule="evenodd" fill="#6D6E70" d="M402.5,95.5c0.2-1-0.5-1.9-1.4-2c-0.9-0.2-1.9,0.5-2,1.4
			l-1.6,9.6l3.4,0.6L402.5,95.5z"/>
	</g>
	<g>
		<path fill-rule="evenodd" clip-rule="evenodd" fill="#929497" d="M379.7,89.9c-0.8,0.1-1.5,0.6-1.6,1.5l-1.6,9.6l2.7,0.4l1.6-9.6
			C380.9,91,380.5,90.2,379.7,89.9z"/>
		<g>
			<path fill-rule="evenodd" clip-rule="evenodd" fill="#929497" d="M381.6,92c0-0.1,0-0.2,0-0.3C381.6,91.7,381.5,91.8,381.6,92
				l-1.7,9.6l0.1,0L381.6,92z"/>
			<path fill-rule="evenodd" clip-rule="evenodd" fill="#929497" d="M383.9,90.6c-0.8,0.1-1.5,0.6-1.6,1.5l-1.6,9.6l2.7,0.4l1.6-9.6
				C385.1,91.7,384.7,90.9,383.9,90.6z"/>
		</g>
		<g>
			<path fill-rule="evenodd" clip-rule="evenodd" fill="#929497" d="M385.8,92.7c0-0.1,0-0.2,0-0.3
				C385.7,92.4,385.7,92.5,385.8,92.7l-1.7,9.6l0.1,0L385.8,92.7z"/>
			<path fill-rule="evenodd" clip-rule="evenodd" fill="#929497" d="M388.1,91.3c-0.8,0.1-1.5,0.6-1.6,1.5l-1.6,9.6l2.7,0.4l1.6-9.6
				C389.3,92.4,388.8,91.6,388.1,91.3z"/>
		</g>
		<g>
			<path fill-rule="evenodd" clip-rule="evenodd" fill="#929497" d="M389.9,93.4c0-0.1,0-0.2,0-0.3
				C389.9,93.1,389.9,93.2,389.9,93.4l-1.7,9.6l0.1,0L389.9,93.4z"/>
			<path fill-rule="evenodd" clip-rule="evenodd" fill="#929497" d="M392.3,92c-0.8,0.1-1.5,0.6-1.6,1.5l-1.6,9.6l2.7,0.4l1.6-9.6
				C393.5,93.1,393,92.3,392.3,92z"/>
		</g>
		<g>
			<path fill-rule="evenodd" clip-rule="evenodd" fill="#929497" d="M394.1,94.1c0-0.1,0-0.2,0-0.3
				C394.1,93.8,394.1,93.9,394.1,94.1l-1.7,9.6l0.1,0L394.1,94.1z"/>
			<path fill-rule="evenodd" clip-rule="evenodd" fill="#929497" d="M396.4,92.7c-0.8,0.1-1.5,0.6-1.6,1.5l-1.6,9.6l2.7,0.4l1.6-9.6
				C397.6,93.8,397.2,93,396.4,92.7z"/>
		</g>
		<g>
			<path fill-rule="evenodd" clip-rule="evenodd" fill="#929497" d="M398.3,94.8c0-0.1,0-0.2,0-0.3
				C398.3,94.5,398.2,94.6,398.3,94.8l-1.7,9.6l0.1,0L398.3,94.8z"/>
			<path fill-rule="evenodd" clip-rule="evenodd" fill="#929497" d="M400.6,93.4c-0.8,0.1-1.5,0.6-1.6,1.5l-1.6,9.6l2.7,0.4l1.6-9.6
				C401.8,94.5,401.3,93.7,400.6,93.4z"/>
		</g>
	</g>
	<g>
		<g>
			<path fill-rule="evenodd" clip-rule="evenodd" fill="#6D6E70" d="M379.1,106.6c0.2-1-0.5-1.9-1.4-2c-0.9-0.2-1.9,0.5-2,1.4
				l-1.6,9.6l3.4,0.6L379.1,106.6z"/>
			<path fill-rule="evenodd" clip-rule="evenodd" fill="#6D6E70" d="M383.3,107.3c0.2-1-0.5-1.9-1.4-2c-0.9-0.2-1.9,0.5-2,1.4
				l-1.6,9.6l3.4,0.6L383.3,107.3z"/>
			<path fill-rule="evenodd" clip-rule="evenodd" fill="#6D6E70" d="M387.5,108c0.2-1-0.5-1.9-1.4-2c-0.9-0.2-1.9,0.5-2,1.4
				l-1.6,9.6l3.4,0.6L387.5,108z"/>
			<path fill-rule="evenodd" clip-rule="evenodd" fill="#6D6E70" d="M391.7,108.7c0.2-1-0.5-1.9-1.4-2c-0.9-0.2-1.9,0.5-2,1.4
				l-1.6,9.6l3.4,0.6L391.7,108.7z"/>
			<path fill-rule="evenodd" clip-rule="evenodd" fill="#6D6E70" d="M395.8,109.4c0.2-1-0.5-1.9-1.4-2c-0.9-0.2-1.9,0.5-2,1.4
				l-1.6,9.6l3.4,0.6L395.8,109.4z"/>
			<path fill-rule="evenodd" clip-rule="evenodd" fill="#6D6E70" d="M400,110.1c0.2-1-0.5-1.9-1.4-2c-0.9-0.2-1.9,0.5-2,1.4
				l-1.6,9.6l3.4,0.6L400,110.1z"/>
		</g>
		<g>
			<path fill-rule="evenodd" clip-rule="evenodd" fill="#929497" d="M377.3,104.6c-0.8,0.1-1.5,0.6-1.6,1.5l-1.6,9.6l2.7,0.4
				l1.6-9.6C378.5,105.7,378,104.9,377.3,104.6z"/>
			<g>
				<path fill-rule="evenodd" clip-rule="evenodd" fill="#929497" d="M379.1,106.6c0-0.1,0-0.2,0-0.3
					C379.1,106.4,379.1,106.5,379.1,106.6l-1.7,9.6l0.1,0L379.1,106.6z"/>
				<path fill-rule="evenodd" clip-rule="evenodd" fill="#929497" d="M381.5,105.3c-0.8,0.1-1.5,0.6-1.6,1.5l-1.6,9.6l2.7,0.4
					l1.6-9.6C382.7,106.4,382.2,105.6,381.5,105.3z"/>
			</g>
			<g>
				<path fill-rule="evenodd" clip-rule="evenodd" fill="#929497" d="M383.3,107.3c0-0.1,0-0.2,0-0.3
					C383.3,107.1,383.3,107.2,383.3,107.3l-1.7,9.6l0.1,0L383.3,107.3z"/>
				<path fill-rule="evenodd" clip-rule="evenodd" fill="#929497" d="M385.6,106c-0.8,0.1-1.5,0.6-1.6,1.5l-1.6,9.6l2.7,0.4l1.6-9.6
					C386.8,107,386.4,106.3,385.6,106z"/>
			</g>
			<g>
				<path fill-rule="evenodd" clip-rule="evenodd" fill="#929497" d="M387.5,108c0-0.1,0-0.2,0-0.3
					C387.5,107.8,387.4,107.9,387.5,108l-1.7,9.6l0.1,0L387.5,108z"/>
				<path fill-rule="evenodd" clip-rule="evenodd" fill="#929497" d="M389.8,106.7c-0.8,0.1-1.5,0.6-1.6,1.5l-1.6,9.6l2.7,0.4
					l1.6-9.6C391,107.7,390.6,107,389.8,106.7z"/>
			</g>
			<g>
				<path fill-rule="evenodd" clip-rule="evenodd" fill="#929497" d="M391.7,108.7c0-0.1,0-0.2,0-0.3
					C391.6,108.5,391.6,108.6,391.7,108.7l-1.7,9.6l0.1,0L391.7,108.7z"/>
				<path fill-rule="evenodd" clip-rule="evenodd" fill="#929497" d="M394,107.4c-0.8,0.1-1.5,0.6-1.6,1.5l-1.6,9.6l2.7,0.4l1.6-9.6
					C395.2,108.4,394.7,107.7,394,107.4z"/>
			</g>
			<g>
				<path fill-rule="evenodd" clip-rule="evenodd" fill="#929497" d="M395.8,109.4c0-0.1,0-0.2,0-0.3
					C395.8,109.2,395.8,109.3,395.8,109.4l-1.7,9.6l0.1,0L395.8,109.4z"/>
				<path fill-rule="evenodd" clip-rule="evenodd" fill="#929497" d="M398.2,108.1c-0.8,0.1-1.5,0.6-1.6,1.5l-1.6,9.6l2.7,0.4
					l1.6-9.6C399.4,109.1,398.9,108.4,398.2,108.1z"/>
			</g>
		</g>
	</g>
	<g>
		<g>
			<path fill-rule="evenodd" clip-rule="evenodd" fill="#6D6E70" d="M376.7,121.2c0.2-1-0.5-1.9-1.4-2c-0.9-0.2-1.9,0.5-2,1.4
				l-1.6,9.6l3.4,0.6L376.7,121.2z"/>
			<path fill-rule="evenodd" clip-rule="evenodd" fill="#6D6E70" d="M380.9,121.9c0.2-1-0.5-1.9-1.4-2c-0.9-0.2-1.9,0.5-2,1.4
				l-1.6,9.6l3.4,0.6L380.9,121.9z"/>
			<path fill-rule="evenodd" clip-rule="evenodd" fill="#6D6E70" d="M385,122.6c0.2-1-0.5-1.9-1.4-2c-0.9-0.2-1.9,0.5-2,1.4
				l-1.6,9.6l3.4,0.6L385,122.6z"/>
			<path fill-rule="evenodd" clip-rule="evenodd" fill="#6D6E70" d="M389.2,123.3c0.2-1-0.5-1.9-1.4-2c-0.9-0.2-1.9,0.5-2,1.4
				l-1.6,9.6l3.4,0.6L389.2,123.3z"/>
			<path fill-rule="evenodd" clip-rule="evenodd" fill="#6D6E70" d="M393.4,124c0.2-1-0.5-1.9-1.4-2c-0.9-0.2-1.9,0.5-2,1.4
				l-1.6,9.6l3.4,0.6L393.4,124z"/>
			<path fill-rule="evenodd" clip-rule="evenodd" fill="#6D6E70" d="M397.6,124.7c0.2-1-0.5-1.9-1.4-2c-0.9-0.2-1.9,0.5-2,1.4
				l-1.6,9.6l3.4,0.6L397.6,124.7z"/>
		</g>
		<g>
			<path fill-rule="evenodd" clip-rule="evenodd" fill="#929497" d="M374.8,119.2c-0.8,0.1-1.5,0.6-1.6,1.5l-1.6,9.6l2.7,0.4
				l1.6-9.6C376,120.3,375.6,119.5,374.8,119.2z"/>
			<g>
				<path fill-rule="evenodd" clip-rule="evenodd" fill="#929497" d="M376.7,121.2c0-0.1,0-0.2,0-0.3
					C376.7,121,376.6,121.1,376.7,121.2l-1.7,9.6l0.1,0L376.7,121.2z"/>
				<path fill-rule="evenodd" clip-rule="evenodd" fill="#929497" d="M379,119.9c-0.8,0.1-1.5,0.6-1.6,1.5l-1.6,9.6l2.7,0.4l1.6-9.6
					C380.2,121,379.8,120.2,379,119.9z"/>
			</g>
			<g>
				<path fill-rule="evenodd" clip-rule="evenodd" fill="#929497" d="M380.9,121.9c0-0.1,0-0.2,0-0.3
					C380.8,121.7,380.8,121.8,380.9,121.9l-1.7,9.6l0.1,0L380.9,121.9z"/>
				<path fill-rule="evenodd" clip-rule="evenodd" fill="#929497" d="M383.2,120.6c-0.8,0.1-1.5,0.6-1.6,1.5l-1.6,9.6l2.7,0.4
					l1.6-9.6C384.4,121.7,383.9,120.9,383.2,120.6z"/>
			</g>
			<g>
				<path fill-rule="evenodd" clip-rule="evenodd" fill="#929497" d="M385,122.6c0-0.1,0-0.2,0-0.3C385,122.4,385,122.5,385,122.6
					l-1.7,9.6l0.1,0L385,122.6z"/>
				<path fill-rule="evenodd" clip-rule="evenodd" fill="#929497" d="M387.4,121.3c-0.8,0.1-1.5,0.6-1.6,1.5l-1.6,9.6l2.7,0.4
					l1.6-9.6C388.6,122.4,388.1,121.6,387.4,121.3z"/>
			</g>
			<g>
				<path fill-rule="evenodd" clip-rule="evenodd" fill="#929497" d="M389.2,123.3c0-0.1,0-0.2,0-0.3
					C389.2,123.1,389.2,123.2,389.2,123.3l-1.7,9.6l0.1,0L389.2,123.3z"/>
				<path fill-rule="evenodd" clip-rule="evenodd" fill="#929497" d="M391.5,122c-0.8,0.1-1.5,0.6-1.6,1.5l-1.6,9.6l2.7,0.4l1.6-9.6
					C392.7,123.1,392.3,122.3,391.5,122z"/>
			</g>
			<g>
				<path fill-rule="evenodd" clip-rule="evenodd" fill="#929497" d="M393.4,124c0-0.1,0-0.2,0-0.3
					C393.4,123.8,393.3,123.9,393.4,124l-1.7,9.6l0.1,0L393.4,124z"/>
				<path fill-rule="evenodd" clip-rule="evenodd" fill="#929497" d="M395.7,122.7c-0.8,0.1-1.5,0.6-1.6,1.5l-1.6,9.6l2.7,0.4
					l1.6-9.6C396.9,123.8,396.4,123,395.7,122.7z"/>
			</g>
		</g>
	</g>
	<g>
		<g>
			<path fill-rule="evenodd" clip-rule="evenodd" fill="#6D6E70" d="M374.4,135.9c0.2-1-0.5-1.9-1.4-2c-0.9-0.2-1.9,0.5-2,1.4
				l-1.6,9.6l3.4,0.6L374.4,135.9z"/>
			<path fill-rule="evenodd" clip-rule="evenodd" fill="#6D6E70" d="M378.5,136.6c0.2-1-0.5-1.9-1.4-2c-0.9-0.2-1.9,0.5-2,1.4
				l-1.6,9.6l3.4,0.6L378.5,136.6z"/>
			<path fill-rule="evenodd" clip-rule="evenodd" fill="#6D6E70" d="M382.7,137.3c0.2-1-0.5-1.9-1.4-2c-0.9-0.2-1.9,0.5-2,1.4
				l-1.6,9.6l3.4,0.6L382.7,137.3z"/>
			<path fill-rule="evenodd" clip-rule="evenodd" fill="#6D6E70" d="M386.9,138c0.2-1-0.5-1.9-1.4-2c-0.9-0.2-1.9,0.5-2,1.4
				l-1.6,9.6l3.4,0.6L386.9,138z"/>
			<path fill-rule="evenodd" clip-rule="evenodd" fill="#6D6E70" d="M391.1,138.7c0.2-1-0.5-1.9-1.4-2c-0.9-0.2-1.9,0.5-2,1.4
				l-1.6,9.6l3.4,0.6L391.1,138.7z"/>
			<path fill-rule="evenodd" clip-rule="evenodd" fill="#6D6E70" d="M395.2,139.4c0.2-1-0.5-1.9-1.4-2c-0.9-0.2-1.9,0.5-2,1.4
				l-1.6,9.6l3.4,0.6L395.2,139.4z"/>
		</g>
		<g>
			<path fill-rule="evenodd" clip-rule="evenodd" fill="#929497" d="M372.5,133.9c-0.8,0.1-1.5,0.6-1.6,1.5l-1.6,9.6l2.7,0.4
				l1.6-9.6C373.7,134.9,373.3,134.2,372.5,133.9z"/>
			<g>
				<path fill-rule="evenodd" clip-rule="evenodd" fill="#929497" d="M374.4,135.9c0-0.1,0-0.2,0-0.3
					C374.4,135.7,374.3,135.8,374.4,135.9l-1.7,9.6l0.1,0L374.4,135.9z"/>
				<path fill-rule="evenodd" clip-rule="evenodd" fill="#929497" d="M376.7,134.6c-0.8,0.1-1.5,0.6-1.6,1.5l-1.6,9.6l2.7,0.4
					l1.6-9.6C377.9,135.6,377.4,134.9,376.7,134.6z"/>
			</g>
			<g>
				<path fill-rule="evenodd" clip-rule="evenodd" fill="#929497" d="M378.5,136.6c0-0.1,0-0.2,0-0.3
					C378.5,136.4,378.5,136.5,378.5,136.6l-1.7,9.6l0.1,0L378.5,136.6z"/>
				<path fill-rule="evenodd" clip-rule="evenodd" fill="#929497" d="M380.9,135.3c-0.8,0.1-1.5,0.6-1.6,1.5l-1.6,9.6l2.7,0.4
					l1.6-9.6C382.1,136.3,381.6,135.6,380.9,135.3z"/>
			</g>
			<g>
				<path fill-rule="evenodd" clip-rule="evenodd" fill="#929497" d="M382.7,137.3c0-0.1,0-0.2,0-0.3
					C382.7,137.1,382.7,137.2,382.7,137.3l-1.7,9.6l0.1,0L382.7,137.3z"/>
				<path fill-rule="evenodd" clip-rule="evenodd" fill="#929497" d="M385.1,136c-0.8,0.1-1.5,0.6-1.6,1.5l-1.6,9.6l2.7,0.4l1.6-9.6
					C386.2,137,385.8,136.3,385.1,136z"/>
			</g>
			<g>
				<path fill-rule="evenodd" clip-rule="evenodd" fill="#929497" d="M386.9,138c0-0.1,0-0.2,0-0.3
					C386.9,137.8,386.9,137.9,386.9,138l-1.7,9.6l0.1,0L386.9,138z"/>
				<path fill-rule="evenodd" clip-rule="evenodd" fill="#929497" d="M389.2,136.7c-0.8,0.1-1.5,0.6-1.6,1.5l-1.6,9.6l2.7,0.4
					l1.6-9.6C390.4,137.7,390,137,389.2,136.7z"/>
			</g>
			<g>
				<path fill-rule="evenodd" clip-rule="evenodd" fill="#929497" d="M391.1,138.7c0-0.1,0-0.2,0-0.3
					C391.1,138.5,391,138.6,391.1,138.7l-1.7,9.6l0.1,0L391.1,138.7z"/>
				<path fill-rule="evenodd" clip-rule="evenodd" fill="#929497" d="M393.4,137.3c-0.8,0.1-1.5,0.6-1.6,1.5l-1.6,9.6l2.7,0.4
					l1.6-9.6C394.6,138.4,394.1,137.7,393.4,137.3z"/>
			</g>
		</g>
	</g>
	<g>
		<g>
			<path fill-rule="evenodd" clip-rule="evenodd" fill="#6D6E70" d="M371.8,150.5c0.2-1-0.5-1.9-1.4-2c-0.9-0.2-1.9,0.5-2,1.4
				l-1.6,9.6l3.4,0.6L371.8,150.5z"/>
			<path fill-rule="evenodd" clip-rule="evenodd" fill="#6D6E70" d="M376,151.2c0.2-1-0.5-1.9-1.4-2c-0.9-0.2-1.9,0.5-2,1.4
				l-1.6,9.6l3.4,0.6L376,151.2z"/>
			<path fill-rule="evenodd" clip-rule="evenodd" fill="#6D6E70" d="M380.1,151.9c0.2-1-0.5-1.9-1.4-2c-0.9-0.2-1.9,0.5-2,1.4
				l-1.6,9.6l3.4,0.6L380.1,151.9z"/>
			<path fill-rule="evenodd" clip-rule="evenodd" fill="#6D6E70" d="M384.3,152.6c0.2-1-0.5-1.9-1.4-2c-0.9-0.2-1.9,0.5-2,1.4
				l-1.6,9.6l3.4,0.6L384.3,152.6z"/>
			<path fill-rule="evenodd" clip-rule="evenodd" fill="#6D6E70" d="M388.5,153.3c0.2-1-0.5-1.9-1.4-2c-0.9-0.2-1.9,0.5-2,1.4
				l-1.6,9.6l3.4,0.6L388.5,153.3z"/>
			<path fill-rule="evenodd" clip-rule="evenodd" fill="#6D6E70" d="M392.7,154c0.2-1-0.5-1.9-1.4-2c-0.9-0.2-1.9,0.5-2,1.4
				l-1.6,9.6l3.4,0.6L392.7,154z"/>
		</g>
		<g>
			<path fill-rule="evenodd" clip-rule="evenodd" fill="#929497" d="M370,148.5c-0.8,0.1-1.5,0.6-1.6,1.5l-1.6,9.6l2.7,0.4l1.6-9.6
				C371.1,149.5,370.7,148.8,370,148.5z"/>
			<g>
				<path fill-rule="evenodd" clip-rule="evenodd" fill="#929497" d="M371.8,150.5c0-0.1,0-0.2,0-0.3
					C371.8,150.3,371.7,150.4,371.8,150.5l-1.7,9.6l0.1,0L371.8,150.5z"/>
				<path fill-rule="evenodd" clip-rule="evenodd" fill="#929497" d="M374.1,149.2c-0.8,0.1-1.5,0.6-1.6,1.5l-1.6,9.6l2.7,0.4
					l1.6-9.6C375.3,150.2,374.9,149.5,374.1,149.2z"/>
			</g>
			<g>
				<path fill-rule="evenodd" clip-rule="evenodd" fill="#929497" d="M376,151.2c0-0.1,0-0.2,0-0.3C375.9,151,375.9,151.1,376,151.2
					l-1.7,9.6l0.1,0L376,151.2z"/>
				<path fill-rule="evenodd" clip-rule="evenodd" fill="#929497" d="M378.3,149.9c-0.8,0.1-1.5,0.6-1.6,1.5l-1.6,9.6l2.7,0.4
					l1.6-9.6C379.5,150.9,379,150.2,378.3,149.9z"/>
			</g>
			<g>
				<path fill-rule="evenodd" clip-rule="evenodd" fill="#929497" d="M380.1,151.9c0-0.1,0-0.2,0-0.3
					C380.1,151.7,380.1,151.8,380.1,151.9l-1.7,9.6l0.1,0L380.1,151.9z"/>
				<path fill-rule="evenodd" clip-rule="evenodd" fill="#929497" d="M382.5,150.6c-0.8,0.1-1.5,0.6-1.6,1.5l-1.6,9.6l2.7,0.4
					l1.6-9.6C383.7,151.6,383.2,150.9,382.5,150.6z"/>
			</g>
			<g>
				<path fill-rule="evenodd" clip-rule="evenodd" fill="#929497" d="M384.3,152.6c0-0.1,0-0.2,0-0.3
					C384.3,152.4,384.3,152.5,384.3,152.6l-1.7,9.6l0.1,0L384.3,152.6z"/>
				<path fill-rule="evenodd" clip-rule="evenodd" fill="#929497" d="M386.6,151.3c-0.8,0.1-1.5,0.6-1.6,1.5l-1.6,9.6l2.7,0.4
					l1.6-9.6C387.8,152.3,387.4,151.6,386.6,151.3z"/>
			</g>
			<g>
				<path fill-rule="evenodd" clip-rule="evenodd" fill="#929497" d="M388.5,153.3c0-0.1,0-0.2,0-0.3
					C388.5,153.1,388.4,153.2,388.5,153.3l-1.7,9.6l0.1,0L388.5,153.3z"/>
				<path fill-rule="evenodd" clip-rule="evenodd" fill="#929497" d="M390.8,152c-0.8,0.1-1.5,0.6-1.6,1.5l-1.6,9.6l2.7,0.4l1.6-9.6
					C392,153,391.6,152.3,390.8,152z"/>
			</g>
		</g>
	</g>
</g>
<g>
	<path fill-rule="evenodd" clip-rule="evenodd" fill="#723E19" d="M301.8,115.6l7.2,38.4l-17.6,0.1c-5.9,0-11.7,0.1-17.6,0.1
		c2.4-14,4.5-26.3,6.7-38.5l7.2,0L301.8,115.6z"/>
	<g>
		<defs>
			<path id="SVGID_1_" d="M301.8,115.6l7.2,38.4l-17.6,0.1c-5.9,0-11.7,0.1-17.6,0.1c2.4-14,4.5-26.3,6.7-38.5l7.2,0L301.8,115.6z"
				/>
		</defs>
		<clipPath id="SVGID_2_">
			<use xlink:href="#SVGID_1_"  overflow="visible"/>
		</clipPath>
		<g clip-path="url(#SVGID_2_)">
			<g>
				
					<rect x="271.4" y="120.4" transform="matrix(1 -6.054454e-03 6.054454e-03 1 -0.7249 1.7653)" fill-rule="evenodd" clip-rule="evenodd" fill="#65523A" width="39.6" height="0.3"/>
				
					<rect x="271.4" y="125.8" transform="matrix(1 -6.062070e-03 6.062070e-03 1 -0.7582 1.7678)" fill-rule="evenodd" clip-rule="evenodd" fill="#65523A" width="39.6" height="0.3"/>
				
					<rect x="271.5" y="131.1" transform="matrix(1 -6.054469e-03 6.054469e-03 1 -0.7896 1.7659)" fill-rule="evenodd" clip-rule="evenodd" fill="#65523A" width="39.6" height="0.3"/>
				
					<rect x="271.5" y="136.5" transform="matrix(1 -6.051976e-03 6.051976e-03 1 -0.8216 1.7655)" fill-rule="evenodd" clip-rule="evenodd" fill="#65523A" width="39.6" height="0.3"/>
				
					<rect x="271.5" y="141.8" transform="matrix(1 -6.054469e-03 6.054469e-03 1 -0.8543 1.7665)" fill-rule="evenodd" clip-rule="evenodd" fill="#65523A" width="39.6" height="0.3"/>
				
					<rect x="271.6" y="147.2" transform="matrix(1 -6.057023e-03 6.057023e-03 1 -0.887 1.7675)" fill-rule="evenodd" clip-rule="evenodd" fill="#65523A" width="39.6" height="0.3"/>
				
					<rect x="271.6" y="152.5" transform="matrix(1 -6.057007e-03 6.057007e-03 1 -0.9193 1.7678)" fill-rule="evenodd" clip-rule="evenodd" fill="#65523A" width="39.6" height="0.3"/>
			</g>
		</g>
	</g>
	
		<rect x="284.5" y="112.1" transform="matrix(-1 6.064290e-03 -6.064290e-03 -1 583.4109 269.773)" fill-rule="evenodd" clip-rule="evenodd" fill="#84481F" width="13.5" height="47.4"/>
	<g>
		<defs>
			
				<rect id="SVGID_3_" x="284.5" y="112.1" transform="matrix(-1 6.064290e-03 -6.064290e-03 -1 583.4109 269.773)" width="13.5" height="47.4"/>
		</defs>
		<clipPath id="SVGID_4_">
			<use xlink:href="#SVGID_3_"  overflow="visible"/>
		</clipPath>
		<g clip-path="url(#SVGID_4_)">
			<g>
				
					<rect x="271.4" y="120.4" transform="matrix(-1 6.054515e-03 -6.054515e-03 -1 583.1343 239.4503)" fill-rule="evenodd" clip-rule="evenodd" fill="#65523A" width="39.6" height="0.3"/>
				
					<rect x="271.4" y="125.8" transform="matrix(-1 6.056900e-03 -6.056900e-03 -1 583.2314 250.1352)" fill-rule="evenodd" clip-rule="evenodd" fill="#65523A" width="39.6" height="0.3"/>
				
					<rect x="271.5" y="131.1" transform="matrix(-1 6.054515e-03 -6.054515e-03 -1 583.3283 260.8214)" fill-rule="evenodd" clip-rule="evenodd" fill="#65523A" width="39.6" height="0.3"/>
				
					<rect x="271.5" y="136.5" transform="matrix(-1 6.056900e-03 -6.056900e-03 -1 583.4255 271.5061)" fill-rule="evenodd" clip-rule="evenodd" fill="#65523A" width="39.6" height="0.3"/>
				
					<rect x="271.5" y="141.8" transform="matrix(-1 6.059522e-03 -6.059522e-03 -1 583.5232 282.1912)" fill-rule="evenodd" clip-rule="evenodd" fill="#65523A" width="39.6" height="0.3"/>
				
					<rect x="271.6" y="147.2" transform="matrix(-1 6.049509e-03 -6.049509e-03 -1 583.6187 292.8796)" fill-rule="evenodd" clip-rule="evenodd" fill="#65523A" width="39.6" height="0.3"/>
				
					<rect x="271.6" y="152.5" transform="matrix(-1 6.056900e-03 -6.056900e-03 -1 583.7168 303.5631)" fill-rule="evenodd" clip-rule="evenodd" fill="#65523A" width="39.6" height="0.3"/>
			</g>
		</g>
	</g>
	<polygon fill-rule="evenodd" clip-rule="evenodd" fill="#A15641" points="284.3,109.7 298,109.6 304.8,117.7 277.6,117.9 	"/>
	<polygon fill-rule="evenodd" clip-rule="evenodd" fill="#8B452F" points="303.3,115.9 304.8,117.7 277.6,117.9 279.1,116.1 	"/>
	
		<rect x="273.8" y="153" transform="matrix(-1 6.055946e-03 -6.055946e-03 -1 583.7817 310.7274)" fill-rule="evenodd" clip-rule="evenodd" fill="#806A50" width="35.2" height="6.5"/>
	
		<rect x="281.1" y="154.8" transform="matrix(-1 6.014938e-03 -6.014938e-03 -1 568.4075 312.6242)" fill-rule="evenodd" clip-rule="evenodd" fill="#6D6E70" width="5.3" height="4.7"/>
	
		<rect x="281.9" y="155" transform="matrix(-6.096250e-03 -1 1 -6.096250e-03 128.797 442.356)" fill-rule="evenodd" clip-rule="evenodd" fill="#58595B" width="4.7" height="4.3"/>
	<g>
		
			<rect x="288.6" y="130.4" transform="matrix(-1 6.090039e-03 -6.090039e-03 -1 583.381 266.1107)" fill-rule="evenodd" clip-rule="evenodd" fill="#58595B" width="5.3" height="7.1"/>
		
			<rect x="288.6" y="130.4" transform="matrix(-1 6.090039e-03 -6.090039e-03 -1 583.381 266.1107)" fill-rule="evenodd" clip-rule="evenodd" fill="#58595B" width="5.3" height="7.1"/>
		
			<rect x="289.2" y="131" transform="matrix(-1 6.049032e-03 -6.049032e-03 -1 583.3756 266.1227)" fill-rule="evenodd" clip-rule="evenodd" fill="#404041" width="4.1" height="5.8"/>
	</g>
	<g>
		
			<rect x="288.7" y="141.4" transform="matrix(-1 6.071204e-03 -6.071204e-03 -1 583.5776 288.0056)" fill-rule="evenodd" clip-rule="evenodd" fill="#58595B" width="5.3" height="7.1"/>
		
			<rect x="288.7" y="141.4" transform="matrix(-1 6.071204e-03 -6.071204e-03 -1 583.5776 288.0056)" fill-rule="evenodd" clip-rule="evenodd" fill="#58595B" width="5.3" height="7.1"/>
		
			<rect x="289.3" y="142" transform="matrix(-1 6.024475e-03 -6.024475e-03 -1 583.5709 288.0188)" fill-rule="evenodd" clip-rule="evenodd" fill="#404041" width="4.1" height="5.8"/>
	</g>
	<g>
		<g>
			<g>
				
					<rect x="290.7" y="88.7" transform="matrix(-0.7028 0.7114 -0.7114 -0.7028 581.8879 -1.2566)" fill-rule="evenodd" clip-rule="evenodd" fill="#58574B" width="1.1" height="64.5"/>
				<path fill-rule="evenodd" clip-rule="evenodd" fill="#D0D2D3" d="M268.7,97.9l4.9-5l21.5,21.2l-4.9,5L268.7,97.9L268.7,97.9z
					 M269.8,98.1l1.3,1.2l1.2-1.2l-1.3-1.2L269.8,98.1L269.8,98.1z M271.1,96.7l1.3,1.2l1.2-1.2l-1.3-1.2L271.1,96.7L271.1,96.7z
					 M272.6,95.3l1.3,1.2l1.2-1.2l-1.3-1.2L272.6,95.3L272.6,95.3z M271.3,99.7l1.3,1.2l1.2-1.2l-1.3-1.2L271.3,99.7L271.3,99.7z
					 M272.7,98.3l1.3,1.2l1.2-1.2l-1.3-1.2L272.7,98.3L272.7,98.3z M274.1,96.8l1.3,1.2l1.2-1.2l-1.3-1.2L274.1,96.8L274.1,96.8z
					 M272.9,101.2l1.3,1.2l1.2-1.2l-1.3-1.2L272.9,101.2L272.9,101.2z M274.3,99.8l1.3,1.2l1.2-1.2l-1.3-1.2L274.3,99.8L274.3,99.8z
					 M275.7,98.4l1.3,1.2l1.2-1.2l-1.3-1.2L275.7,98.4L275.7,98.4z M274.4,102.8l1.3,1.2l1.2-1.2l-1.3-1.2L274.4,102.8L274.4,102.8z
					 M275.8,101.3l1.3,1.2l1.2-1.2l-1.3-1.2L275.8,101.3L275.8,101.3z M277.2,99.9l1.3,1.2l1.2-1.2l-1.3-1.2L277.2,99.9L277.2,99.9z
					 M276,104.3l1.3,1.2l1.2-1.2l-1.3-1.2L276,104.3L276,104.3z M277.4,102.9l1.3,1.2l1.2-1.2l-1.3-1.2L277.4,102.9L277.4,102.9z
					 M278.8,101.4l1.3,1.2l1.2-1.2l-1.3-1.2L278.8,101.4L278.8,101.4z M277.5,105.8l1.3,1.2l1.2-1.2l-1.3-1.2L277.5,105.8
					L277.5,105.8z M278.9,104.4l1.3,1.2l1.2-1.2l-1.3-1.2L278.9,104.4L278.9,104.4z M280.3,103l1.3,1.2l1.2-1.2l-1.3-1.2L280.3,103
					L280.3,103z M279.1,107.4l1.3,1.2l1.2-1.2l-1.3-1.2L279.1,107.4L279.1,107.4z M280.5,106l1.3,1.2l1.2-1.2l-1.3-1.2L280.5,106
					L280.5,106z M281.9,104.5l1.3,1.2l1.2-1.2l-1.3-1.2L281.9,104.5L281.9,104.5z M280.7,108.9l1.3,1.2l1.2-1.2l-1.3-1.2
					L280.7,108.9L280.7,108.9z M282,107.5l1.3,1.2l1.2-1.2l-1.3-1.2L282,107.5L282,107.5z M283.5,106.1l1.3,1.2l1.2-1.2l-1.3-1.2
					L283.5,106.1L283.5,106.1z M282.2,110.4l1.3,1.2l1.2-1.2l-1.3-1.2L282.2,110.4L282.2,110.4z M283.6,109l1.3,1.2l1.2-1.2
					l-1.3-1.2L283.6,109L283.6,109z M285,107.6l1.3,1.2l1.2-1.2l-1.3-1.2L285,107.6L285,107.6z M283.8,112l1.3,1.2l1.2-1.2l-1.3-1.2
					L283.8,112L283.8,112z M285.2,110.6l1.3,1.2l1.2-1.2l-1.3-1.2L285.2,110.6L285.2,110.6z M286.6,109.1l1.3,1.2l1.2-1.2l-1.3-1.2
					L286.6,109.1L286.6,109.1z M285.3,113.5l1.3,1.2l1.2-1.2l-1.3-1.2L285.3,113.5L285.3,113.5z M286.7,112.1l1.3,1.2l1.2-1.2
					l-1.3-1.2L286.7,112.1L286.7,112.1z M288.1,110.7l1.3,1.2l1.2-1.2l-1.3-1.2L288.1,110.7L288.1,110.7z M286.9,115.1l1.3,1.2
					l1.2-1.2l-1.3-1.2L286.9,115.1L286.9,115.1z M288.3,113.7l1.3,1.2l1.2-1.2l-1.3-1.2L288.3,113.7L288.3,113.7z M289.7,112.2
					l1.3,1.2l1.2-1.2l-1.3-1.2L289.7,112.2L289.7,112.2z M288.4,116.6l1.3,1.2l1.2-1.2l-1.3-1.2L288.4,116.6L288.4,116.6z
					 M289.8,115.2l1.3,1.2l1.2-1.2L291,114L289.8,115.2L289.8,115.2z M291.2,113.8l1.3,1.2l1.2-1.2l-1.3-1.2L291.2,113.8z"/>
				<path fill-rule="evenodd" clip-rule="evenodd" fill="#D0D2D3" d="M308.8,149l4.9-5l-21.5-21.2l-4.9,5L308.8,149L308.8,149z
					 M308.5,147.9l-1.3-1.2l1.2-1.2l1.3,1.2L308.5,147.9L308.5,147.9z M309.9,146.5l-1.3-1.2l1.2-1.2l1.3,1.2L309.9,146.5
					L309.9,146.5z M311.3,145.1l-1.3-1.2l1.2-1.2l1.3,1.2L311.3,145.1L311.3,145.1z M307,146.4l-1.3-1.2l1.2-1.2l1.3,1.2L307,146.4
					L307,146.4z M308.4,145l-1.3-1.2l1.2-1.2l1.3,1.2L308.4,145L308.4,145z M309.8,143.5l-1.3-1.2l1.2-1.2l1.3,1.2L309.8,143.5
					L309.8,143.5z M305.4,144.8l-1.3-1.2l1.2-1.2l1.3,1.2L305.4,144.8L305.4,144.8z M306.8,143.4l-1.3-1.2l1.2-1.2l1.3,1.2
					L306.8,143.4L306.8,143.4z M308.2,142l-1.3-1.2l1.2-1.2l1.3,1.2L308.2,142L308.2,142z M303.9,143.3l-1.3-1.2l1.2-1.2l1.3,1.2
					L303.9,143.3L303.9,143.3z M305.2,141.9l-1.3-1.2l1.2-1.2l1.3,1.2L305.2,141.9L305.2,141.9z M306.7,140.4l-1.3-1.2l1.2-1.2
					l1.3,1.2L306.7,140.4L306.7,140.4z M302.3,141.7l-1.3-1.2l1.2-1.2l1.3,1.2L302.3,141.7L302.3,141.7z M303.7,140.3l-1.3-1.2
					l1.2-1.2l1.3,1.2L303.7,140.3L303.7,140.3z M305.1,138.9l-1.3-1.2l1.2-1.2l1.3,1.2L305.1,138.9L305.1,138.9z M300.7,140.2
					l-1.3-1.2l1.2-1.2l1.3,1.2L300.7,140.2L300.7,140.2z M302.1,138.8l-1.3-1.2l1.2-1.2l1.3,1.2L302.1,138.8L302.1,138.8z
					 M303.6,137.4l-1.3-1.2l1.2-1.2l1.3,1.2L303.6,137.4L303.6,137.4z M299.2,138.7l-1.3-1.2l1.2-1.2l1.3,1.2L299.2,138.7
					L299.2,138.7z M300.6,137.3l-1.3-1.2l1.2-1.2l1.3,1.2L300.6,137.3L300.6,137.3z M302,135.8l-1.3-1.2l1.2-1.2l1.3,1.2L302,135.8
					L302,135.8z M297.6,137.1l-1.3-1.2l1.2-1.2l1.3,1.2L297.6,137.1L297.6,137.1z M299,135.7l-1.3-1.2l1.2-1.2l1.3,1.2L299,135.7
					L299,135.7z M300.4,134.3l-1.3-1.2l1.2-1.2l1.3,1.2L300.4,134.3L300.4,134.3z M296.1,135.6l-1.3-1.2l1.2-1.2l1.3,1.2
					L296.1,135.6L296.1,135.6z M297.5,134.2l-1.3-1.2l1.2-1.2l1.3,1.2L297.5,134.2L297.5,134.2z M298.9,132.8l-1.3-1.2l1.2-1.2
					l1.3,1.2L298.9,132.8L298.9,132.8z M294.5,134.1l-1.3-1.2l1.2-1.2l1.3,1.2L294.5,134.1L294.5,134.1z M295.9,132.7l-1.3-1.2
					l1.2-1.2l1.3,1.2L295.9,132.7L295.9,132.7z M297.3,131.2l-1.3-1.2l1.2-1.2l1.3,1.2L297.3,131.2L297.3,131.2z M293,132.5
					l-1.3-1.2l1.2-1.2l1.3,1.2L293,132.5L293,132.5z M294.3,131.1l-1.3-1.2l1.2-1.2l1.3,1.2L294.3,131.1L294.3,131.1z M295.8,129.7
					l-1.3-1.2l1.2-1.2l1.3,1.2L295.8,129.7L295.8,129.7z M291.4,131l-1.3-1.2l1.2-1.2l1.3,1.2L291.4,131L291.4,131z M292.8,129.6
					l-1.3-1.2l1.2-1.2l1.3,1.2L292.8,129.6L292.8,129.6z M294.2,128.1l-1.3-1.2l1.2-1.2l1.3,1.2L294.2,128.1L294.2,128.1z
					 M289.8,129.4l-1.3-1.2l1.2-1.2l1.3,1.2L289.8,129.4L289.8,129.4z M291.2,128l-1.3-1.2l1.2-1.2l1.3,1.2L291.2,128L291.2,128z
					 M292.7,126.6l-1.3-1.2l1.2-1.2l1.3,1.2L292.7,126.6z"/>
			</g>
			<g>
				
					<rect x="290.7" y="88.7" transform="matrix(0.7113 0.7029 -0.7029 0.7113 169.0573 -169.7674)" fill-rule="evenodd" clip-rule="evenodd" fill="#58574B" width="1.1" height="64.5"/>
				<path fill-rule="evenodd" clip-rule="evenodd" fill="#D0D2D3" d="M268.1,143.5l-5-4.9l21.2-21.5l5,4.9L268.1,143.5L268.1,143.5z
					 M268.4,142.4l1.2-1.3l-1.2-1.2l-1.2,1.3L268.4,142.4L268.4,142.4z M267,141l1.2-1.3l-1.2-1.2l-1.2,1.3L267,141L267,141z
					 M265.6,139.6l1.2-1.3l-1.2-1.2l-1.2,1.3L265.6,139.6L265.6,139.6z M270,140.8l1.2-1.3l-1.2-1.2l-1.2,1.3L270,140.8L270,140.8z
					 M268.5,139.4l1.2-1.3l-1.2-1.2l-1.2,1.3L268.5,139.4L268.5,139.4z M267.1,138l1.2-1.3l-1.2-1.2l-1.2,1.3L267.1,138L267.1,138z
					 M271.5,139.3l1.2-1.3l-1.2-1.2l-1.2,1.3L271.5,139.3L271.5,139.3z M270.1,137.9l1.2-1.3l-1.2-1.2l-1.2,1.3L270.1,137.9
					L270.1,137.9z M268.6,136.5l1.2-1.3l-1.2-1.2l-1.2,1.3L268.6,136.5L268.6,136.5z M273,137.7l1.2-1.3l-1.2-1.2l-1.2,1.3
					L273,137.7L273,137.7z M271.6,136.3l1.2-1.3l-1.2-1.2l-1.2,1.3L271.6,136.3L271.6,136.3z M270.2,134.9l1.2-1.3l-1.2-1.2
					l-1.2,1.3L270.2,134.9L270.2,134.9z M274.6,136.2l1.2-1.3l-1.2-1.2l-1.2,1.3L274.6,136.2L274.6,136.2z M273.2,134.8l1.2-1.3
					l-1.2-1.2l-1.2,1.3L273.2,134.8L273.2,134.8z M271.7,133.3l1.2-1.3l-1.2-1.2l-1.2,1.3L271.7,133.3L271.7,133.3z M276.1,134.6
					l1.2-1.3l-1.2-1.2l-1.2,1.3L276.1,134.6L276.1,134.6z M274.7,133.2l1.2-1.3l-1.2-1.2l-1.2,1.3L274.7,133.2L274.7,133.2z
					 M273.3,131.8l1.2-1.3l-1.2-1.2l-1.2,1.3L273.3,131.8L273.3,131.8z M277.6,133l1.2-1.3l-1.2-1.2l-1.2,1.3L277.6,133L277.6,133z
					 M276.2,131.7l1.2-1.3l-1.2-1.2l-1.2,1.3L276.2,131.7L276.2,131.7z M274.8,130.2l1.2-1.3l-1.2-1.2l-1.2,1.3L274.8,130.2
					L274.8,130.2z M279.2,131.5l1.2-1.3l-1.2-1.2l-1.2,1.3L279.2,131.5L279.2,131.5z M277.8,130.1l1.2-1.3l-1.2-1.2l-1.2,1.3
					L277.8,130.1L277.8,130.1z M276.3,128.7l1.2-1.3l-1.2-1.2l-1.2,1.3L276.3,128.7L276.3,128.7z M280.7,129.9l1.2-1.3l-1.2-1.2
					l-1.2,1.3L280.7,129.9L280.7,129.9z M279.3,128.5l1.2-1.3l-1.2-1.2l-1.2,1.3L279.3,128.5L279.3,128.5z M277.9,127.1l1.2-1.3
					l-1.2-1.2l-1.2,1.3L277.9,127.1L277.9,127.1z M282.3,128.4l1.2-1.3l-1.2-1.2l-1.2,1.3L282.3,128.4L282.3,128.4z M280.9,127
					l1.2-1.3l-1.2-1.2l-1.2,1.3L280.9,127L280.9,127z M279.4,125.6l1.2-1.3l-1.2-1.2l-1.2,1.3L279.4,125.6L279.4,125.6z
					 M283.8,126.8l1.2-1.3l-1.2-1.2l-1.2,1.3L283.8,126.8L283.8,126.8z M282.4,125.4l1.2-1.3l-1.2-1.2l-1.2,1.3L282.4,125.4
					L282.4,125.4z M281,124l1.2-1.3l-1.2-1.2l-1.2,1.3L281,124L281,124z M285.3,125.3l1.2-1.3l-1.2-1.2l-1.2,1.3L285.3,125.3
					L285.3,125.3z M283.9,123.9l1.2-1.3l-1.2-1.2l-1.2,1.3L283.9,123.9L283.9,123.9z M282.5,122.4l1.2-1.3l-1.2-1.2l-1.2,1.3
					L282.5,122.4L282.5,122.4z M286.9,123.7l1.2-1.3l-1.2-1.2l-1.2,1.3L286.9,123.7L286.9,123.7z M285.5,122.3l1.2-1.3l-1.2-1.2
					l-1.2,1.3L285.5,122.3L285.5,122.3z M284,120.9l1.2-1.3l-1.2-1.2l-1.2,1.3L284,120.9z"/>
				<path fill-rule="evenodd" clip-rule="evenodd" fill="#D0D2D3" d="M319.3,103.3l-5-4.9L293,119.9l5,4.9L319.3,103.3L319.3,103.3z
					 M318.2,103.6l-1.2,1.3l-1.2-1.2l1.2-1.3L318.2,103.6L318.2,103.6z M316.8,102.2l-1.2,1.3l-1.2-1.2l1.2-1.3L316.8,102.2
					L316.8,102.2z M315.3,100.8l-1.2,1.3l-1.2-1.2l1.2-1.3L315.3,100.8L315.3,100.8z M316.6,105.2l-1.2,1.3l-1.2-1.2l1.2-1.3
					L316.6,105.2L316.6,105.2z M315.2,103.8L314,105l-1.2-1.2l1.2-1.3L315.2,103.8L315.2,103.8z M313.8,102.4l-1.2,1.3l-1.2-1.2
					l1.2-1.3L313.8,102.4L313.8,102.4z M315.1,106.7l-1.2,1.3l-1.2-1.2l1.2-1.3L315.1,106.7L315.1,106.7z M313.7,105.3l-1.2,1.3
					l-1.2-1.2l1.2-1.3L313.7,105.3L313.7,105.3z M312.3,103.9l-1.2,1.3l-1.2-1.2l1.2-1.3L312.3,103.9L312.3,103.9z M313.6,108.3
					l-1.2,1.3l-1.2-1.2l1.2-1.3L313.6,108.3L313.6,108.3z M312.2,106.9l-1.2,1.3l-1.2-1.2l1.2-1.3L312.2,106.9L312.2,106.9z
					 M310.7,105.5l-1.2,1.3l-1.2-1.2l1.2-1.3L310.7,105.5L310.7,105.5z M312,109.8l-1.2,1.3l-1.2-1.2l1.2-1.3L312,109.8L312,109.8z
					 M310.6,108.4l-1.2,1.3l-1.2-1.2l1.2-1.3L310.6,108.4L310.6,108.4z M309.2,107l-1.2,1.3l-1.2-1.2l1.2-1.3L309.2,107L309.2,107z
					 M310.5,111.4l-1.2,1.3l-1.2-1.2l1.2-1.3L310.5,111.4L310.5,111.4z M309.1,110l-1.2,1.3l-1.2-1.2l1.2-1.3L309.1,110L309.1,110z
					 M307.6,108.6l-1.2,1.3l-1.2-1.2l1.2-1.3L307.6,108.6L307.6,108.6z M308.9,112.9l-1.2,1.3l-1.2-1.2l1.2-1.3L308.9,112.9
					L308.9,112.9z M307.5,111.6l-1.2,1.3l-1.2-1.2l1.2-1.3L307.5,111.6L307.5,111.6z M306.1,110.1l-1.2,1.3l-1.2-1.2l1.2-1.3
					L306.1,110.1L306.1,110.1z M307.4,114.5l-1.2,1.3l-1.2-1.2l1.2-1.3L307.4,114.5L307.4,114.5z M306,113.1l-1.2,1.3l-1.2-1.2
					l1.2-1.3L306,113.1L306,113.1z M304.6,111.7l-1.2,1.3l-1.2-1.2l1.2-1.3L304.6,111.7L304.6,111.7z M305.9,116.1l-1.2,1.3
					l-1.2-1.2l1.2-1.3L305.9,116.1L305.9,116.1z M304.5,114.7l-1.2,1.3l-1.2-1.2l1.2-1.3L304.5,114.7L304.5,114.7z M303,113.3
					l-1.2,1.3l-1.2-1.2l1.2-1.3L303,113.3L303,113.3z M304.3,117.6l-1.2,1.3l-1.2-1.2l1.2-1.3L304.3,117.6L304.3,117.6z
					 M302.9,116.2l-1.2,1.3l-1.2-1.2l1.2-1.3L302.9,116.2L302.9,116.2z M301.5,114.8l-1.2,1.3l-1.2-1.2l1.2-1.3L301.5,114.8
					L301.5,114.8z M302.8,119.2l-1.2,1.3l-1.2-1.2l1.2-1.3L302.8,119.2L302.8,119.2z M301.4,117.8l-1.2,1.3l-1.2-1.2l1.2-1.3
					L301.4,117.8L301.4,117.8z M300,116.4l-1.2,1.3l-1.2-1.2l1.2-1.3L300,116.4L300,116.4z M301.3,120.7L300,122l-1.2-1.2l1.2-1.3
					L301.3,120.7L301.3,120.7z M299.9,119.3l-1.2,1.3l-1.2-1.2l1.2-1.3L299.9,119.3L299.9,119.3z M298.4,117.9l-1.2,1.3l-1.2-1.2
					l1.2-1.3L298.4,117.9L298.4,117.9z M299.7,122.3l-1.2,1.3l-1.2-1.2l1.2-1.3L299.7,122.3L299.7,122.3z M298.3,120.9l-1.2,1.3
					l-1.2-1.2l1.2-1.3L298.3,120.9L298.3,120.9z M296.9,119.5l-1.2,1.3l-1.2-1.2l1.2-1.3L296.9,119.5z"/>
			</g>
		</g>
		<circle fill-rule="evenodd" clip-rule="evenodd" fill="#6D6E70" cx="291.2" cy="120.9" r="1.7"/>
	</g>
</g>
<g id="XMLID_958_">
	
		<rect id="XMLID_36_" x="104.3" y="0" transform="matrix(-0.9997 2.533800e-02 -2.533800e-02 -0.9997 210.8042 32.9563)" fill-rule="evenodd" clip-rule="evenodd" fill="#929497" width="1.8" height="35.6"/>
	
		<rect id="XMLID_35_" x="102.7" y="29.6" transform="matrix(-0.9997 2.534276e-02 -2.534276e-02 -0.9997 213.555 105.2818)" fill-rule="evenodd" clip-rule="evenodd" fill="#929497" width="6.8" height="48.8"/>
	
		<rect id="XMLID_34_" x="102.7" y="29.7" transform="matrix(-0.9997 2.532536e-02 -2.532536e-02 -0.9997 207.7946 105.5027)" fill-rule="evenodd" clip-rule="evenodd" fill="#808184" width="1" height="48.8"/>
	
		<rect id="XMLID_33_" x="98.8" y="55.8" transform="matrix(-0.9997 2.534181e-02 -2.534181e-02 -0.9997 209.4744 217.5876)" fill-rule="evenodd" clip-rule="evenodd" fill="#D0D2D3" width="9.2" height="108.7"/>
	
		<rect id="XMLID_32_" x="106.6" y="55.7" transform="matrix(-0.9997 2.536183e-02 -2.536183e-02 -0.9997 217.2688 217.289)" fill-rule="evenodd" clip-rule="evenodd" fill="#808184" width="1.4" height="108.7"/>
	
		<rect id="XMLID_31_" x="93" y="95.2" transform="matrix(-0.9997 2.533085e-02 -2.533085e-02 -0.9997 198.5465 257.3206)" fill-rule="evenodd" clip-rule="evenodd" fill="#C1C2C2" width="9.2" height="69.4"/>
	
		<rect id="XMLID_23_" x="100.8" y="95.1" transform="matrix(-0.9997 2.529033e-02 -2.529033e-02 -0.9997 206.3336 257.0285)" fill-rule="evenodd" clip-rule="evenodd" fill="#929497" width="1.4" height="69.4"/>
	
		<rect id="XMLID_22_" x="88.5" y="129.1" transform="matrix(-0.9997 2.534181e-02 -2.534181e-02 -0.9997 189.8739 291.4645)" fill-rule="evenodd" clip-rule="evenodd" fill="#BBBDBF" width="9.2" height="35.6"/>
	
		<rect id="XMLID_21_" x="96.3" y="129" transform="matrix(-0.9997 2.536159e-02 -2.536159e-02 -0.9997 197.669 291.1661)" fill-rule="evenodd" clip-rule="evenodd" fill="#929497" width="1.4" height="35.6"/>
	
		<rect id="XMLID_20_" x="106.8" y="74.4" transform="matrix(-0.9997 2.534157e-02 -2.534157e-02 -0.9997 225.7734 235.776)" fill-rule="evenodd" clip-rule="evenodd" fill="#BBBDBF" width="9.2" height="89.9"/>
	
		<rect id="XMLID_19_" x="106.8" y="74.5" transform="matrix(-0.9997 2.536183e-02 -2.536183e-02 -0.9997 217.9833 236.0701)" fill-rule="evenodd" clip-rule="evenodd" fill="#808184" width="1.4" height="89.9"/>
	
		<rect id="XMLID_18_" x="113.4" y="108.2" transform="matrix(-0.9997 2.534205e-02 -2.534205e-02 -0.9997 239.485 269.2697)" fill-rule="evenodd" clip-rule="evenodd" fill="#BBBDBF" width="9.2" height="55.9"/>
	
		<rect id="XMLID_17_" x="113.4" y="108.3" transform="matrix(-0.9997 2.536540e-02 -2.536540e-02 -0.9997 231.6959 269.5634)" fill-rule="evenodd" clip-rule="evenodd" fill="#929497" width="1.4" height="55.9"/>
	
		<rect id="XMLID_16_" x="118.9" y="144.1" transform="matrix(-0.9997 2.534181e-02 -2.534181e-02 -0.9997 250.8107 304.8554)" fill-rule="evenodd" clip-rule="evenodd" fill="#A6A8AB" width="9.2" height="19.9"/>
	
		<rect id="XMLID_15_" x="118.9" y="144.2" transform="matrix(-0.9997 2.536159e-02 -2.536159e-02 -0.9997 243.0216 305.1493)" fill-rule="evenodd" clip-rule="evenodd" fill="#929497" width="1.4" height="19.9"/>
	
		<rect id="XMLID_10_" x="82.7" y="158.5" transform="matrix(-0.9997 2.533823e-02 -2.533823e-02 -0.9997 220.5208 320.0143)" fill-rule="evenodd" clip-rule="evenodd" fill="#58595B" width="51" height="5.9"/>
	
		<rect id="XMLID_9_" x="86.8" y="154.9" transform="matrix(-0.9997 2.533823e-02 -2.533823e-02 -0.9997 220.16 310.5251)" fill-rule="evenodd" clip-rule="evenodd" fill="#6D6E70" width="42.6" height="3.6"/>
</g>
<g>
	<g>
		<g>
			<polygon fill-rule="evenodd" clip-rule="evenodd" fill="#FFE7AE" points="149.6,113.3 153.8,113.2 156.3,157.3 149.6,157.4 			
				"/>
			<polygon fill-rule="evenodd" clip-rule="evenodd" fill="#E5CE97" points="151.7,113.3 153.8,113.2 156.3,157.3 153,157.4 			"/>
			<g>
				<path fill-rule="evenodd" clip-rule="evenodd" fill="#6A5D41" d="M150.5,113.9L150.5,113.9c0.2,0,0.4,0.2,0.4,0.4l0,1.4
					c0,0.2-0.2,0.4-0.4,0.4l0,0c-0.2,0-0.4-0.2-0.4-0.4l0-1.4C150.1,114.1,150.3,113.9,150.5,113.9z"/>
				<path fill-rule="evenodd" clip-rule="evenodd" fill="#6A5D41" d="M151.8,113.9L151.8,113.9c0.2,0,0.4,0.2,0.4,0.4l0,1.4
					c0,0.2-0.2,0.4-0.4,0.4l0,0c-0.2,0-0.4-0.2-0.4-0.4l0-1.4C151.3,114.1,151.5,113.9,151.8,113.9z"/>
				<path fill-rule="evenodd" clip-rule="evenodd" fill="#6A5D41" d="M153,113.8L153,113.8c0.2,0,0.4,0.2,0.4,0.4l0,1.4
					c0,0.2-0.2,0.4-0.4,0.4h0c-0.2,0-0.4-0.2-0.4-0.4l0-1.4C152.6,114.1,152.8,113.9,153,113.8z"/>
			</g>
			<g>
				<path fill-rule="evenodd" clip-rule="evenodd" fill="#E5CE97" d="M153.7,111.6c0-0.1,0-0.2,0-0.3c0-1.3-0.9-2.3-2-2.3l-0.2-2
					l0.1,4.9l2.3-0.1l0-0.3L153.7,111.6z"/>
				<path fill-rule="evenodd" clip-rule="evenodd" fill="#FFE7AE" d="M149.6,111.7c0-0.1,0-0.2,0-0.3c0-1.3,0.8-2.3,1.9-2.4l0.1-2
					l0.1,4.9l-2.3,0.1l0-0.3L149.6,111.7z"/>
			</g>
			<g>
				
					<rect x="149.2" y="111.9" transform="matrix(0.9997 -2.510693e-02 2.510693e-02 0.9997 -2.7732 3.8445)" fill-rule="evenodd" clip-rule="evenodd" fill="#D2BD8A" width="4.9" height="0.9"/>
				<polygon fill-rule="evenodd" clip-rule="evenodd" fill="#C3AF80" points="149.3,112.9 149.6,113.5 153.8,113.3 154.2,112.7 				
					"/>
			</g>
			<g>
				<polygon fill-rule="evenodd" clip-rule="evenodd" fill="#D2BD8A" points="155.3,126.9 149,127 148.9,125.9 155.3,125.7 				"/>
				<polygon fill-rule="evenodd" clip-rule="evenodd" fill="#C3AF80" points="149,127 149.4,127.8 154.8,127.6 155.3,126.9 				"/>
			</g>
			<g>
				<polygon fill-rule="evenodd" clip-rule="evenodd" fill="#D2BD8A" points="156.3,146.3 149,146.5 149,145.1 156.3,144.9 				"/>
				<polygon fill-rule="evenodd" clip-rule="evenodd" fill="#C3AF80" points="149,146.5 149.5,147.3 155.8,147.1 156.3,146.3 				
					"/>
			</g>
			<polygon fill-rule="evenodd" clip-rule="evenodd" fill="#FFE7AE" points="162.2,125.5 165.2,125.4 167,157 162.2,157.1 			"/>
			<polygon fill-rule="evenodd" clip-rule="evenodd" fill="#E5CE97" points="163.7,125.5 165.2,125.4 167,157 164.6,157 			"/>
			<g>
				<path fill-rule="evenodd" clip-rule="evenodd" fill="#6A5D41" d="M162.8,125.9L162.8,125.9c0.2,0,0.3,0.1,0.3,0.3l0,1
					c0,0.2-0.1,0.3-0.3,0.3l0,0c-0.2,0-0.3-0.1-0.3-0.3l0-1C162.5,126.1,162.6,125.9,162.8,125.9z"/>
				<path fill-rule="evenodd" clip-rule="evenodd" fill="#6A5D41" d="M163.7,125.9L163.7,125.9c0.2,0,0.3,0.1,0.3,0.3l0,1
					c0,0.2-0.1,0.3-0.3,0.3l0,0c-0.2,0-0.3-0.1-0.3-0.3l0-1C163.4,126.1,163.5,125.9,163.7,125.9z"/>
				<path fill-rule="evenodd" clip-rule="evenodd" fill="#6A5D41" d="M164.6,125.9L164.6,125.9c0.2,0,0.3,0.1,0.3,0.3l0,1
					c0,0.2-0.1,0.3-0.3,0.3l0,0c-0.2,0-0.3-0.1-0.3-0.3l0-1C164.3,126,164.5,125.9,164.6,125.9z"/>
			</g>
			<g>
				<path fill-rule="evenodd" clip-rule="evenodd" fill="#E5CE97" d="M165.2,124.3c0-0.1,0-0.1,0-0.2c0-0.9-0.7-1.6-1.4-1.7
					l-0.2-1.5l0.1,3.6l1.7,0l0-0.2L165.2,124.3z"/>
				<path fill-rule="evenodd" clip-rule="evenodd" fill="#FFE7AE" d="M162.2,124.4c0-0.1,0-0.1,0-0.2c0-0.9,0.6-1.7,1.4-1.8l0.1-1.5
					l0.1,3.6l-1.7,0l0-0.2L162.2,124.4z"/>
			</g>
			<g>
				
					<rect x="161.9" y="124.5" transform="matrix(0.9997 -2.506840e-02 2.506840e-02 0.9997 -3.0772 4.1426)" fill-rule="evenodd" clip-rule="evenodd" fill="#D2BD8A" width="3.6" height="0.7"/>
				<polygon fill-rule="evenodd" clip-rule="evenodd" fill="#C3AF80" points="161.9,125.2 162.1,125.6 165.2,125.5 165.5,125.1 				
					"/>
			</g>
			<g>
				
					<rect x="161.7" y="134.6" transform="matrix(0.9997 -2.504578e-02 2.504578e-02 0.9997 -3.3305 4.1492)" fill-rule="evenodd" clip-rule="evenodd" fill="#D2BD8A" width="4.6" height="0.8"/>
				<polygon fill-rule="evenodd" clip-rule="evenodd" fill="#C3AF80" points="161.7,135.5 162,136.1 166,135.9 166.3,135.4 				"/>
			</g>
			<g>
				<polygon fill-rule="evenodd" clip-rule="evenodd" fill="#D2BD8A" points="167,149.5 161.7,149.7 161.7,148.7 167,148.6 				"/>
				<polygon fill-rule="evenodd" clip-rule="evenodd" fill="#C3AF80" points="161.7,149.7 162.1,150.3 166.7,150.2 167,149.5 				
					"/>
			</g>
		</g>
		<g>
			<polygon fill-rule="evenodd" clip-rule="evenodd" fill="#FFE7AE" points="253.1,110.4 248.9,110.6 248.9,154.7 255.5,154.5 			
				"/>
			<polygon fill-rule="evenodd" clip-rule="evenodd" fill="#E5CE97" points="251,110.5 248.9,110.6 248.9,154.7 252.2,154.6 			"/>
			<g>
				<path fill-rule="evenodd" clip-rule="evenodd" fill="#6A5D41" d="M252.3,111.1L252.3,111.1c-0.2,0-0.4,0.2-0.4,0.4l0,1.4
					c0,0.2,0.2,0.4,0.4,0.4l0,0c0.2,0,0.4-0.2,0.4-0.4l0-1.4C252.7,111.3,252.5,111.1,252.3,111.1z"/>
				<path fill-rule="evenodd" clip-rule="evenodd" fill="#6A5D41" d="M251,111.1L251,111.1c-0.2,0-0.4,0.2-0.4,0.4l0,1.4
					c0,0.2,0.2,0.4,0.4,0.4l0,0c0.2,0,0.4-0.2,0.4-0.4l0-1.4C251.5,111.3,251.3,111.1,251,111.1z"/>
				<path fill-rule="evenodd" clip-rule="evenodd" fill="#6A5D41" d="M249.8,111.2L249.8,111.2c-0.2,0-0.4,0.2-0.4,0.4l0,1.4
					c0,0.2,0.2,0.4,0.4,0.4l0,0c0.2,0,0.4-0.2,0.4-0.4l0-1.4C250.2,111.3,250,111.1,249.8,111.2z"/>
			</g>
			<g>
				<path fill-rule="evenodd" clip-rule="evenodd" fill="#E5CE97" d="M248.9,109c0-0.1,0-0.2,0-0.3c0-1.3,0.8-2.3,1.9-2.4l0.1-2
					l0.1,4.9l-2.3,0.1l0-0.3L248.9,109z"/>
				<path fill-rule="evenodd" clip-rule="evenodd" fill="#FFE7AE" d="M253,108.9c0-0.1,0-0.2,0-0.3c0-1.3-0.9-2.3-2-2.3l-0.2-2
					l0.1,4.9l2.3-0.1l0-0.3L253,108.9z"/>
			</g>
			<g>
				
					<rect x="248.5" y="109.2" transform="matrix(-0.9995 3.055017e-02 -3.055017e-02 -0.9995 505.1793 211.4834)" fill-rule="evenodd" clip-rule="evenodd" fill="#D2BD8A" width="4.9" height="0.9"/>
				<polygon fill-rule="evenodd" clip-rule="evenodd" fill="#C3AF80" points="253.5,110 253.2,110.6 248.9,110.7 248.5,110.1 				
					"/>
			</g>
			<g>
				<polygon fill-rule="evenodd" clip-rule="evenodd" fill="#D2BD8A" points="248.2,124.3 254.5,124.1 254.5,122.9 248.2,123.1 				
					"/>
				<polygon fill-rule="evenodd" clip-rule="evenodd" fill="#C3AF80" points="254.5,124.1 254.1,124.9 248.7,125 248.2,124.3 				
					"/>
			</g>
			<g>
				<polygon fill-rule="evenodd" clip-rule="evenodd" fill="#D2BD8A" points="248.3,143.7 255.6,143.5 255.5,142.2 248.2,142.4 				
					"/>
				<polygon fill-rule="evenodd" clip-rule="evenodd" fill="#C3AF80" points="255.6,143.5 255.1,144.4 248.8,144.6 248.3,143.7 				
					"/>
			</g>
			<polygon fill-rule="evenodd" clip-rule="evenodd" fill="#FFE7AE" points="241.3,123.3 238.2,123.4 238.2,155 243,154.8 			"/>
			<polygon fill-rule="evenodd" clip-rule="evenodd" fill="#E5CE97" points="239.7,123.3 238.2,123.4 238.2,155 240.6,154.9 			"/>
			<g>
				<path fill-rule="evenodd" clip-rule="evenodd" fill="#6A5D41" d="M240.7,123.8L240.7,123.8c-0.2,0-0.3,0.2-0.3,0.3l0,1
					c0,0.2,0.2,0.3,0.3,0.3l0,0c0.2,0,0.3-0.2,0.3-0.3l0-1C241,123.9,240.8,123.8,240.7,123.8z"/>
				<path fill-rule="evenodd" clip-rule="evenodd" fill="#6A5D41" d="M239.7,123.8L239.7,123.8c-0.2,0-0.3,0.2-0.3,0.3l0,1
					c0,0.2,0.2,0.3,0.3,0.3l0,0c0.2,0,0.3-0.2,0.3-0.3l0-1C240.1,123.9,239.9,123.8,239.7,123.8z"/>
				<path fill-rule="evenodd" clip-rule="evenodd" fill="#6A5D41" d="M238.8,123.8L238.8,123.8c-0.2,0-0.3,0.2-0.3,0.3l0,1
					c0,0.2,0.2,0.3,0.3,0.3l0,0c0.2,0,0.3-0.2,0.3-0.3l0-1C239.1,124,239,123.8,238.8,123.8z"/>
			</g>
			<g>
				<path fill-rule="evenodd" clip-rule="evenodd" fill="#E5CE97" d="M238.2,122.2c0-0.1,0-0.1,0-0.2c0-0.9,0.6-1.7,1.4-1.8l0.1-1.5
					l0.1,3.6l-1.7,0l0-0.2L238.2,122.2z"/>
				<path fill-rule="evenodd" clip-rule="evenodd" fill="#FFE7AE" d="M241.2,122.2c0-0.1,0-0.1,0-0.2c0-0.9-0.7-1.6-1.4-1.7
					l-0.2-1.5l0.1,3.6l1.7,0l0-0.2L241.2,122.2z"/>
			</g>
			<g>
				
					<rect x="237.9" y="122.4" transform="matrix(-0.9995 3.047463e-02 -3.047463e-02 -0.9995 483.0474 238.0189)" fill-rule="evenodd" clip-rule="evenodd" fill="#D2BD8A" width="3.6" height="0.7"/>
				<polygon fill-rule="evenodd" clip-rule="evenodd" fill="#C3AF80" points="241.5,123 241.3,123.4 238.2,123.5 237.9,123.1 				
					"/>
			</g>
			<g>
				
					<rect x="237.7" y="132.5" transform="matrix(-0.9995 3.050417e-02 -3.050417e-02 -0.9995 483.9309 258.447)" fill-rule="evenodd" clip-rule="evenodd" fill="#D2BD8A" width="4.6" height="0.8"/>
				<polygon fill-rule="evenodd" clip-rule="evenodd" fill="#C3AF80" points="242.3,133.3 242,133.8 238.1,133.9 237.7,133.4 				
					"/>
			</g>
			<g>
				<polygon fill-rule="evenodd" clip-rule="evenodd" fill="#D2BD8A" points="237.7,147.6 243.1,147.4 243,146.4 237.7,146.6 				
					"/>
				<polygon fill-rule="evenodd" clip-rule="evenodd" fill="#C3AF80" points="243.1,147.4 242.7,148.1 238.2,148.2 237.7,147.6 				
					"/>
			</g>
		</g>
	</g>
	<g>
		<g>
			<path fill-rule="evenodd" clip-rule="evenodd" fill="#FFE7AE" d="M188.5,130c-0.1-2.4-2.7-3.5-4.3-5.3l-0.2,0
				c-1.5,1.9-4.1,3.1-4,5.5c0,0.8,0.2,1.5,0.6,2.1l0.1,3.6l7.5-0.2l-0.1-3.8C188.4,131.3,188.6,130.7,188.5,130z"/>
			<path fill-rule="evenodd" clip-rule="evenodd" fill="#E5CE97" d="M188.5,130c-0.1-2.4-2.7-3.5-4.3-5.3l-0.1,0l0.3,11l3.8-0.1
				l-0.1-3.8C188.4,131.3,188.6,130.7,188.5,130z"/>
			<g>
				<path fill-rule="evenodd" clip-rule="evenodd" fill="#6A5D41" d="M183.6,133.9c0-0.4,0.6-0.5,0.9-0.8c0.3,0.3,0.9,0.3,0.9,0.8h0
					l0.1,1.9l-1.8,0.1L183.6,133.9L183.6,133.9z"/>
				<path fill-rule="evenodd" clip-rule="evenodd" fill="#7A6D4D" d="M183.6,133.9c0-0.4,0.6-0.5,0.9-0.8c0.1,0.1,0.2,0.1,0.3,0.2
					c-0.3,0.3-0.8,0.3-0.8,0.8l0,0l0,1.7l-0.4,0L183.6,133.9L183.6,133.9z"/>
			</g>
			<g>
				<path fill-rule="evenodd" clip-rule="evenodd" fill="#6A5D41" d="M181.3,134c0-0.4,0.5-0.5,0.7-0.8c0.3,0.3,0.7,0.3,0.8,0.8h0
					l0.1,1.9l-1.5,0L181.3,134L181.3,134z"/>
				<path fill-rule="evenodd" clip-rule="evenodd" fill="#7A6D4D" d="M181.3,134c0-0.4,0.5-0.5,0.7-0.8c0.1,0.1,0.2,0.1,0.2,0.2
					c-0.3,0.3-0.7,0.3-0.7,0.7l0,0l0,1.7l-0.3,0L181.3,134L181.3,134z"/>
			</g>
			<g>
				<path fill-rule="evenodd" clip-rule="evenodd" fill="#6A5D41" d="M187.7,133.8c0-0.4-0.5-0.5-0.8-0.8c-0.3,0.3-0.7,0.4-0.7,0.8
					h0l0.1,1.9l1.5,0L187.7,133.8L187.7,133.8z"/>
				<path fill-rule="evenodd" clip-rule="evenodd" fill="#7A6D4D" d="M187.7,133.8c0-0.4-0.5-0.5-0.8-0.8c-0.1,0.1-0.1,0.2-0.2,0.2
					c0.3,0.3,0.7,0.3,0.7,0.7l0,0l0,1.7l0.3,0L187.7,133.8L187.7,133.8z"/>
			</g>
			
				<rect x="180.6" y="132.2" transform="matrix(-0.9996 2.779570e-02 -2.779570e-02 -0.9996 372.408 259.5138)" fill-rule="evenodd" clip-rule="evenodd" fill="#D2BD8A" width="7.5" height="0.2"/>
			
				<rect x="180.6" y="132.3" transform="matrix(0.9996 -2.779579e-02 2.779579e-02 0.9996 -3.6087 5.1767)" fill-rule="evenodd" clip-rule="evenodd" fill="#C3AF80" width="7.5" height="0.1"/>
		</g>
		<g>
			<path fill-rule="evenodd" clip-rule="evenodd" fill="#FFE7AE" d="M215.5,129.2c-0.1-2.4,2.5-3.6,4-5.5l0.2,0
				c1.6,1.8,4.3,2.8,4.3,5.3c0,0.8-0.2,1.5-0.5,2.1l0.1,3.6l-7.5,0.2l-0.1-3.8C215.7,130.5,215.5,129.9,215.5,129.2z"/>
			<path fill-rule="evenodd" clip-rule="evenodd" fill="#E5CE97" d="M215.5,129.2c-0.1-2.4,2.5-3.6,4-5.5l0.1,0l0.3,11l-3.8,0.1
				l-0.1-3.8C215.7,130.5,215.5,129.9,215.5,129.2z"/>
			<g>
				<path fill-rule="evenodd" clip-rule="evenodd" fill="#6A5D41" d="M220.7,132.9c0-0.4-0.6-0.5-0.9-0.8c-0.3,0.3-0.9,0.4-0.9,0.8
					h0l0.1,1.9l1.8-0.1L220.7,132.9L220.7,132.9z"/>
				<path fill-rule="evenodd" clip-rule="evenodd" fill="#7A6D4D" d="M220.7,132.9c0-0.4-0.6-0.5-0.9-0.8c-0.1,0.1-0.2,0.2-0.3,0.2
					c0.3,0.3,0.8,0.3,0.9,0.7l0,0l0,1.7l0.4,0L220.7,132.9L220.7,132.9z"/>
			</g>
			<g>
				<path fill-rule="evenodd" clip-rule="evenodd" fill="#6A5D41" d="M223,132.8c0-0.4-0.5-0.5-0.8-0.8c-0.3,0.3-0.7,0.4-0.7,0.8h0
					l0.1,1.9l1.5,0L223,132.8L223,132.8z"/>
				<path fill-rule="evenodd" clip-rule="evenodd" fill="#7A6D4D" d="M223,132.8c0-0.4-0.5-0.5-0.8-0.8c-0.1,0.1-0.1,0.2-0.2,0.2
					c0.3,0.3,0.7,0.3,0.7,0.7h0l0,1.7l0.3,0L223,132.8L223,132.8z"/>
			</g>
			<g>
				<path fill-rule="evenodd" clip-rule="evenodd" fill="#6A5D41" d="M216.6,133c0-0.4,0.5-0.5,0.7-0.8c0.3,0.3,0.7,0.3,0.8,0.8l0,0
					l0.1,1.9l-1.5,0L216.6,133L216.6,133z"/>
				<path fill-rule="evenodd" clip-rule="evenodd" fill="#7A6D4D" d="M216.6,133c0-0.4,0.5-0.5,0.7-0.8c0.1,0.1,0.1,0.1,0.2,0.2
					c-0.3,0.3-0.7,0.3-0.7,0.7l0,0l0,1.7l-0.3,0L216.6,133L216.6,133z"/>
			</g>
			
				<rect x="216" y="131.3" transform="matrix(0.9996 -2.779579e-02 2.779579e-02 0.9996 -3.5664 6.1599)" fill-rule="evenodd" clip-rule="evenodd" fill="#D2BD8A" width="7.5" height="0.2"/>
			
				<rect x="216" y="131.4" transform="matrix(-0.9996 2.779546e-02 -2.779546e-02 -0.9996 443.142 256.6603)" fill-rule="evenodd" clip-rule="evenodd" fill="#C3AF80" width="7.5" height="0.1"/>
		</g>
	</g>
	<g>
		<path fill-rule="evenodd" clip-rule="evenodd" fill="#FFE7AE" d="M190.3,120.2c-0.2-6.7,6.8-9.9,11.1-15.1l10.1,26l-9.4,0.3
			l-10.3,0.3l-0.2-6.4C190.8,123.8,190.4,122.1,190.3,120.2z"/>
		<path fill-rule="evenodd" clip-rule="evenodd" fill="#E5CE97" d="M213.2,119.5c-0.2-6.7-7.4-9.5-11.9-14.4l0.7,26.3l10.3-0.3
			l-0.2-6.4C212.9,123.2,213.3,121.5,213.2,119.5z"/>
	</g>
	
		<rect x="174.8" y="133.8" transform="matrix(-0.9996 2.779379e-02 -2.779379e-02 -0.9996 408.0341 264.3062)" fill-rule="evenodd" clip-rule="evenodd" fill="#D2BD8A" width="54.8" height="2.5"/>
	<g>
		<polygon fill-rule="evenodd" clip-rule="evenodd" fill="#FFE7AE" points="230.2,134.3 230.9,156.5 173.6,158.1 173.2,135.9 		"/>
		<polygon fill-rule="evenodd" clip-rule="evenodd" fill="#E5CE97" points="173.2,135.9 173.6,158.1 180.6,157.9 180,135.7 		"/>
		
			<rect x="216.3" y="142.3" transform="matrix(-2.779249e-02 -0.9996 0.9996 -2.779249e-02 88.318 376.8509)" fill-rule="evenodd" clip-rule="evenodd" fill="#E5CE97" width="22.1" height="6.3"/>
	</g>
	
		<rect x="190.5" y="128.6" transform="matrix(0.9996 -2.778557e-02 2.778557e-02 0.9996 -3.8881 5.6788)" fill-rule="evenodd" clip-rule="evenodd" fill="#E7D09A" width="23.9" height="28.3"/>
	<path fill-rule="evenodd" clip-rule="evenodd" fill="#C3AF80" d="M210.5,131.7l-17.2,0.5l0,0.9l0.1,2.8l0.5,19.7
		c0.8,0,16.3-0.5,17.2-0.5l-0.5-19.7l-0.1-2.8L210.5,131.7z"/>
	<path fill-rule="evenodd" clip-rule="evenodd" fill="#7A6D4D" d="M207.9,141.3c-0.1-3.2-3.9-3.3-6.1-5.7c-2.1,2.5-5.8,2.8-5.8,6.1
		l0,0l0.4,14.8l11.9-0.3L207.9,141.3L207.9,141.3z"/>
	<path fill-rule="evenodd" clip-rule="evenodd" fill="#6A5D41" d="M207.9,141.3c-0.1-2.6-2.5-3.2-4.6-4.5c-2.1,2-5.2,2.5-5.2,5.4
		l0,0l0.4,14.1l9.8-0.3L207.9,141.3L207.9,141.3z"/>
	
		<linearGradient id="SVGID_5_" gradientUnits="userSpaceOnUse" x1="202.1504" y1="136.1231" x2="202.1503" y2="136.1157" gradientTransform="matrix(0.9995 -3.040000e-02 3.040000e-02 0.9995 -4.362 5.6999)">
		<stop  offset="0" style="stop-color:#FCB614"/>
		<stop  offset="1.000000e-02" style="stop-color:#FCB614"/>
		<stop  offset="0.48" style="stop-color:#EC9522"/>
		<stop  offset="0.98" style="stop-color:#E17B26"/>
		<stop  offset="1" style="stop-color:#E17B26"/>
	</linearGradient>
	<polygon fill-rule="evenodd" clip-rule="evenodd" fill="url(#SVGID_5_)" points="201.8,135.6 201.8,135.6 201.8,135.6 	"/>
	<path fill-rule="evenodd" clip-rule="evenodd" fill="#6A5D41" d="M221.8,138.8c0-1.3-1.6-1.4-2.5-2.4c-0.9,1-2.4,1.2-2.4,2.5h0
		l0.2,6.2l4.9-0.1L221.8,138.8L221.8,138.8z"/>
	
		<linearGradient id="SVGID_6_" gradientUnits="userSpaceOnUse" x1="219.5754" y1="137.4492" x2="219.5753" y2="137.443" gradientTransform="matrix(0.9995 -3.040000e-02 3.040000e-02 0.9995 -4.362 5.6999)">
		<stop  offset="0" style="stop-color:#FCB614"/>
		<stop  offset="1.000000e-02" style="stop-color:#FCB614"/>
		<stop  offset="0.48" style="stop-color:#EC9522"/>
		<stop  offset="0.98" style="stop-color:#E17B26"/>
		<stop  offset="1" style="stop-color:#E17B26"/>
	</linearGradient>
	<polygon fill-rule="evenodd" clip-rule="evenodd" fill="url(#SVGID_6_)" points="219.3,136.4 219.3,136.4 219.3,136.4 	"/>
	<path fill-rule="evenodd" clip-rule="evenodd" fill="#7A6D4D" d="M221.8,138.8c0-1.3-1.6-1.4-2.5-2.4c-0.2,0.3-0.5,0.5-0.8,0.7
		c0.9,0.8,2.3,0.9,2.3,2.2l0,0l0.2,5.7l1,0L221.8,138.8L221.8,138.8z"/>
	<path fill-rule="evenodd" clip-rule="evenodd" fill="#6A5D41" d="M222.1,148.8c0-1.3-1.6-1.4-2.5-2.4c-0.9,1-2.4,1.2-2.4,2.5l0,0
		l0.2,6.2l4.9-0.1L222.1,148.8L222.1,148.8z"/>
	
		<linearGradient id="SVGID_7_" gradientUnits="userSpaceOnUse" x1="219.5493" y1="147.4812" x2="219.5491" y2="147.4804" gradientTransform="matrix(0.9995 -3.040000e-02 3.040000e-02 0.9995 -4.362 5.6999)">
		<stop  offset="0" style="stop-color:#FCB614"/>
		<stop  offset="1.000000e-02" style="stop-color:#FCB614"/>
		<stop  offset="0.48" style="stop-color:#EC9522"/>
		<stop  offset="0.98" style="stop-color:#E17B26"/>
		<stop  offset="1" style="stop-color:#E17B26"/>
	</linearGradient>
	<polygon fill-rule="evenodd" clip-rule="evenodd" fill="url(#SVGID_7_)" points="219.6,146.4 219.6,146.4 219.6,146.4 	"/>
	<path fill-rule="evenodd" clip-rule="evenodd" fill="#7A6D4D" d="M222.1,148.8c0-1.3-1.6-1.4-2.5-2.4c-0.2,0.3-0.5,0.5-0.8,0.7
		c0.9,0.8,2.3,0.9,2.3,2.2l0,0l0.2,5.7l1,0L222.1,148.8L222.1,148.8z"/>
	<path fill-rule="evenodd" clip-rule="evenodd" fill="#6A5D41" d="M182.5,139.9c0-1.3,1.5-1.5,2.4-2.5c0.9,1,2.5,1,2.5,2.4l0,0
		l0.2,6.2l-5,0.1L182.5,139.9L182.5,139.9z"/>
	<path fill-rule="evenodd" clip-rule="evenodd" fill="#7A6D4D" d="M182.5,139.9c0-1.3,1.5-1.5,2.4-2.5c0.2,0.3,0.5,0.4,0.8,0.6
		c-0.9,0.9-2.2,1.1-2.2,2.3l0,0l0.2,5.7l-1,0L182.5,139.9L182.5,139.9z"/>
	<path fill-rule="evenodd" clip-rule="evenodd" fill="#6A5D41" d="M182.8,149.9c0-1.3,1.5-1.5,2.4-2.5c0.9,1,2.5,1,2.5,2.4l0,0
		l0.2,6.2l-5,0.1L182.8,149.9L182.8,149.9z"/>
	
		<linearGradient id="SVGID_8_" gradientUnits="userSpaceOnUse" x1="185.1774" y1="147.3916" x2="185.1774" y2="147.3914" gradientTransform="matrix(0.9995 -3.040000e-02 3.040000e-02 0.9995 -4.362 5.6999)">
		<stop  offset="0" style="stop-color:#FCB614"/>
		<stop  offset="1.000000e-02" style="stop-color:#FCB614"/>
		<stop  offset="0.48" style="stop-color:#EC9522"/>
		<stop  offset="0.98" style="stop-color:#E17B26"/>
		<stop  offset="1" style="stop-color:#E17B26"/>
	</linearGradient>
	<polygon fill-rule="evenodd" clip-rule="evenodd" fill="url(#SVGID_8_)" points="185.2,147.4 185.2,147.4 185.2,147.4 	"/>
	<path fill-rule="evenodd" clip-rule="evenodd" fill="#7A6D4D" d="M182.8,149.9c0-1.3,1.5-1.5,2.4-2.5c0.2,0.3,0.5,0.4,0.8,0.6
		c-0.9,0.9-2.2,1.1-2.2,2.3l0,0l0.2,5.7l-1,0L182.8,149.9L182.8,149.9z"/>
	
		<rect x="142.3" y="155.4" transform="matrix(0.9996 -2.779159e-02 2.779159e-02 0.9996 -4.2991 5.6793)" fill-rule="evenodd" clip-rule="evenodd" fill="#C3AF80" width="119.8" height="4.1"/>
	
		<rect x="142.3" y="155.4" transform="matrix(0.9996 -2.779400e-02 2.779400e-02 0.9996 -4.2699 5.6786)" fill-rule="evenodd" clip-rule="evenodd" fill="#E7D09A" width="119.8" height="2"/>
	<g>
		
			<rect x="189.3" y="127.4" transform="matrix(0.9996 -2.779010e-02 2.779010e-02 0.9996 -3.4783 5.6626)" fill-rule="evenodd" clip-rule="evenodd" fill="#D2BD8A" width="25.4" height="1.1"/>
		
			<rect x="189.3" y="128.2" transform="matrix(0.9996 -2.778913e-02 2.778913e-02 0.9996 -3.4916 5.6629)" fill-rule="evenodd" clip-rule="evenodd" fill="#C3AF80" width="25.4" height="0.4"/>
	</g>
	<g>
		
			<rect x="191.4" y="125.6" transform="matrix(-0.9996 2.779117e-02 -2.779117e-02 -0.9996 407.3054 246.4808)" fill-rule="evenodd" clip-rule="evenodd" fill="#D2BD8A" width="21.1" height="1"/>
		
			<rect x="191.4" y="126.1" transform="matrix(0.9996 -2.778629e-02 2.778629e-02 0.9996 -3.4323 5.6601)" fill-rule="evenodd" clip-rule="evenodd" fill="#C3AF80" width="21.1" height="0.5"/>
	</g>
	<path fill-rule="evenodd" clip-rule="evenodd" fill="#6A5D41" d="M229.2,138.5c0-1.3-1.2-1.4-1.8-2.4c-0.6,1-1.7,1.2-1.7,2.5h0
		l0.2,6.2l3.6-0.1L229.2,138.5L229.2,138.5z"/>
	
		<linearGradient id="SVGID_9_" gradientUnits="userSpaceOnUse" x1="227.6738" y1="137.3638" x2="227.6736" y2="137.3569" gradientTransform="matrix(0.9995 -3.040000e-02 3.040000e-02 0.9995 -4.362 5.6999)">
		<stop  offset="0" style="stop-color:#FCB614"/>
		<stop  offset="1.000000e-02" style="stop-color:#FCB614"/>
		<stop  offset="0.48" style="stop-color:#EC9522"/>
		<stop  offset="0.98" style="stop-color:#E17B26"/>
		<stop  offset="1" style="stop-color:#E17B26"/>
	</linearGradient>
	<polygon fill-rule="evenodd" clip-rule="evenodd" fill="url(#SVGID_9_)" points="227.4,136.1 227.4,136.1 227.4,136.1 	"/>
	<path fill-rule="evenodd" clip-rule="evenodd" fill="#7A6D4D" d="M229.2,138.5c0-1.3-1.2-1.4-1.8-2.4c-0.2,0.3-0.3,0.5-0.5,0.6
		c0.7,0.8,1.7,1,1.7,2.2l0,0l0.2,5.7l0.7,0L229.2,138.5L229.2,138.5z"/>
	<path fill-rule="evenodd" clip-rule="evenodd" fill="#6A5D41" d="M229.5,148.5c0-1.3-1.2-1.4-1.8-2.4c-0.6,1-1.7,1.2-1.7,2.5h0
		l0.2,6.2l3.6-0.1L229.5,148.5L229.5,148.5z"/>
	
		<linearGradient id="SVGID_10_" gradientUnits="userSpaceOnUse" x1="227.6475" y1="147.3954" x2="227.6475" y2="147.3952" gradientTransform="matrix(0.9995 -3.040000e-02 3.040000e-02 0.9995 -4.362 5.6999)">
		<stop  offset="0" style="stop-color:#FCB614"/>
		<stop  offset="1.000000e-02" style="stop-color:#FCB614"/>
		<stop  offset="0.48" style="stop-color:#EC9522"/>
		<stop  offset="0.98" style="stop-color:#E17B26"/>
		<stop  offset="1" style="stop-color:#E17B26"/>
	</linearGradient>
	<polygon fill-rule="evenodd" clip-rule="evenodd" fill="url(#SVGID_10_)" points="227.7,146.1 227.7,146.1 227.7,146.1 	"/>
	<path fill-rule="evenodd" clip-rule="evenodd" fill="#7A6D4D" d="M229.5,148.5c0-1.3-1.2-1.4-1.8-2.4c-0.2,0.3-0.3,0.5-0.5,0.6
		c0.7,0.8,1.7,1,1.7,2.2l0,0l0.2,5.7l0.7,0L229.5,148.5L229.5,148.5z"/>
	<path fill-rule="evenodd" clip-rule="evenodd" fill="#6A5D41" d="M174.8,140c0-1.3,1.1-1.5,1.7-2.5c0.7,1,1.8,1.1,1.8,2.4l0,0
		l0.2,6.2l-3.6,0.1L174.8,140L174.8,140z"/>
	
		<linearGradient id="SVGID_11_" gradientUnits="userSpaceOnUse" x1="176.7718" y1="137.2303" x2="176.772" y2="137.2243" gradientTransform="matrix(0.9995 -3.040000e-02 3.040000e-02 0.9995 -4.362 5.6999)">
		<stop  offset="0" style="stop-color:#FCB614"/>
		<stop  offset="1.000000e-02" style="stop-color:#FCB614"/>
		<stop  offset="0.48" style="stop-color:#EC9522"/>
		<stop  offset="0.98" style="stop-color:#E17B26"/>
		<stop  offset="1" style="stop-color:#E17B26"/>
	</linearGradient>
	<polygon fill-rule="evenodd" clip-rule="evenodd" fill="url(#SVGID_11_)" points="176.5,137.5 176.5,137.5 176.5,137.5 	"/>
	<path fill-rule="evenodd" clip-rule="evenodd" fill="#7A6D4D" d="M174.8,140c0-1.3,1.1-1.5,1.7-2.5c0.2,0.3,0.4,0.4,0.6,0.6
		c-0.6,0.9-1.6,1-1.6,2.3l0,0l0.2,5.7l-0.7,0L174.8,140L174.8,140z"/>
	<path fill-rule="evenodd" clip-rule="evenodd" fill="#6A5D41" d="M175.1,150c0-1.3,1.1-1.5,1.7-2.5c0.7,1,1.8,1.1,1.8,2.4h0
		l0.2,6.2l-3.6,0.1L175.1,150L175.1,150z"/>
	
		<linearGradient id="SVGID_12_" gradientUnits="userSpaceOnUse" x1="176.7457" y1="147.2624" x2="176.7457" y2="147.2621" gradientTransform="matrix(0.9995 -3.040000e-02 3.040000e-02 0.9995 -4.362 5.6999)">
		<stop  offset="0" style="stop-color:#FCB614"/>
		<stop  offset="1.000000e-02" style="stop-color:#FCB614"/>
		<stop  offset="0.48" style="stop-color:#EC9522"/>
		<stop  offset="0.98" style="stop-color:#E17B26"/>
		<stop  offset="1" style="stop-color:#E17B26"/>
	</linearGradient>
	<polygon fill-rule="evenodd" clip-rule="evenodd" fill="url(#SVGID_12_)" points="176.8,147.5 176.8,147.5 176.8,147.5 	"/>
	<path fill-rule="evenodd" clip-rule="evenodd" fill="#7A6D4D" d="M175.1,150c0-1.3,1.1-1.5,1.7-2.5c0.2,0.3,0.4,0.4,0.6,0.6
		c-0.6,0.9-1.6,1-1.6,2.3l0,0l0.2,5.7l-0.7,0L175.1,150L175.1,150z"/>
	
		<rect x="190.5" y="129" transform="matrix(-0.9996 2.773159e-02 -2.773159e-02 -0.9996 385.531 279.3903)" fill-rule="evenodd" clip-rule="evenodd" fill="#C3AF80" width="0.7" height="26.8"/>
	
		<rect x="213.6" y="128.4" transform="matrix(-0.9996 2.758955e-02 -2.758955e-02 -0.9996 431.7018 277.4958)" fill-rule="evenodd" clip-rule="evenodd" fill="#C3AF80" width="0.7" height="26.8"/>
</g>
<g id="XMLID_1360_">
	<path id="XMLID_1372_" fill-rule="evenodd" clip-rule="evenodd" fill="#696558" d="M422.5,66.6c-2.2,30.9-3,63.4-20.2,90.4h8.1
		c1.5-5.6,6.9-9.7,13.4-9.7c6.5,0,11.9,4.1,13.4,9.7h8.1c-17.2-27-18-59.5-20.2-90.4l0.7-1.8h-4.1L422.5,66.6L422.5,66.6z
		 M420.8,119.9h6l3,16.4h-12L420.8,119.9z"/>
	<path id="XMLID_412_" fill-rule="evenodd" clip-rule="evenodd" fill="#5C594D" d="M422.5,66.6c-2.2,30.9-3,63.4-20.2,90.4h8.1
		c1.5-5.6,6.9-9.7,13.4-9.7v-11h-6l3-16.4h3V64.8h-2.1L422.5,66.6z"/>
	<rect id="XMLID_411_" x="409.4" y="135.4" fill-rule="evenodd" clip-rule="evenodd" fill="#5C584B" width="28.8" height="4.3"/>
	<rect id="XMLID_410_" x="409.4" y="137.5" fill-rule="evenodd" clip-rule="evenodd" fill="#4D4A3F" width="28.8" height="2.1"/>
	<g id="XMLID_1366_">
		<rect id="XMLID_409_" x="416.3" y="113.8" fill-rule="evenodd" clip-rule="evenodd" fill="#5C584B" width="15.1" height="2.9"/>
		<rect id="XMLID_408_" x="416.3" y="115.2" fill-rule="evenodd" clip-rule="evenodd" fill="#4D4A3F" width="15.1" height="1.4"/>
	</g>
	<path id="XMLID_407_" fill-rule="evenodd" clip-rule="evenodd" fill="#8E8778" d="M425.9,64.8c-0.2-0.8-0.7-1.4-1.2-1.7v-0.5
		c0,0,0-0.1,0-0.1l-0.8-5l0,0l-0.8,5c0,0,0,0.1,0,0.1V63c-0.6,0.3-1,0.9-1.2,1.7H425.9z"/>
	<path id="XMLID_406_" fill-rule="evenodd" clip-rule="evenodd" fill="#7B7668" d="M423.8,57.4L423.8,57.4v7.3h-2
		c0.2-0.8,0.7-1.4,1.2-1.7v-0.5c0,0,0-0.1,0-0.1L423.8,57.4z"/>
	<rect id="XMLID_405_" x="421.4" y="64.2" fill-rule="evenodd" clip-rule="evenodd" fill="#5C584B" width="4.9" height="1.3"/>
	<rect id="XMLID_404_" x="421.4" y="64.8" fill-rule="evenodd" clip-rule="evenodd" fill="#4D4A3F" width="4.9" height="1.2"/>
	<rect id="XMLID_403_" x="399.9" y="156.3" fill-rule="evenodd" clip-rule="evenodd" fill="#6D6E70" width="47.8" height="2.1"/>
</g>
<g id="XMLID_3690_">
	<g id="XMLID_3709_">
		<g id="XMLID_3713_">
			
				<rect id="XMLID_3715_" x="640" y="125.4" transform="matrix(-0.9984 -5.647838e-02 5.647838e-02 -0.9984 1275.0073 327.8903)" fill-rule="evenodd" clip-rule="evenodd" fill="#CA2D36" width="4.2" height="41.1"/>
			
				<rect id="XMLID_3714_" x="640" y="125.3" transform="matrix(0.9984 5.645477e-02 -5.645477e-02 0.9984 9.2574 -35.9593)" fill-rule="evenodd" clip-rule="evenodd" fill="#B4262B" width="2.1" height="41.1"/>
		</g>
		<g id="XMLID_3710_">
			
				<rect id="XMLID_3712_" x="605.9" y="123.4" transform="matrix(-0.9984 -5.647838e-02 5.647838e-02 -0.9984 1206.885 322.1019)" fill-rule="evenodd" clip-rule="evenodd" fill="#CA2D36" width="4.2" height="41.1"/>
			
				<rect id="XMLID_3711_" x="608" y="123.5" transform="matrix(-0.9984 -5.650171e-02 5.650171e-02 -0.9984 1208.9927 322.2955)" fill-rule="evenodd" clip-rule="evenodd" fill="#B4262B" width="2.1" height="41.1"/>
		</g>
	</g>
	<path id="XMLID_3708_" fill-rule="evenodd" clip-rule="evenodd" fill="#404041" d="M601.6,124.2c6.8,1.2,15.5,2.1,24.2,2.6l0,0
		c8.7,0.5,17.5,0.6,24.4,0.1l0.1-1.4l1.2-0.3l2.5-2.6l2.8-0.9l0.8-3.2c-6.3,1.7-18.8,2-31.3,1.3l0,0c-12.5-0.7-25-2.4-31-4.8
		l0.4,3.2l2.6,1.2l2.1,2.8l1.2,0.4L601.6,124.2z"/>
	<path id="XMLID_3707_" fill-rule="evenodd" clip-rule="evenodd" fill="#CA2D36" d="M601.6,124.2c6.8,1.2,15.5,2.1,24.2,2.6l0,0
		c8.7,0.5,17.5,0.6,24.4,0.1l0.1-1.4l1.2-0.3l2.5-2.6l2.8-0.9c-6.7,1.4-18.8,1.6-30.7,0.9h0c-11.9-0.6-23.9-2.2-30.4-4.4l2.6,1.2
		l2.1,2.8l1.2,0.4L601.6,124.2z"/>
	<path id="XMLID_3706_" fill-rule="evenodd" clip-rule="evenodd" fill="#B4262B" d="M601.6,124.2c6.8,1.2,15.5,2.1,24.2,2.6l0,0
		c8.7,0.5,17.5,0.6,24.4,0.1c0-0.5,0.1-0.9,0.1-1.4c-16.4,0.8-32.6-0.1-48.7-2.8L601.6,124.2z"/>
	
		<rect id="XMLID_3705_" x="601.4" y="134.1" transform="matrix(-0.9984 -5.648410e-02 5.648410e-02 -0.9984 1242.4436 307.3643)" fill-rule="evenodd" clip-rule="evenodd" fill="#CA2D36" width="48.4" height="4"/>
	<path id="XMLID_3704_" fill-rule="evenodd" clip-rule="evenodd" fill="#B4262B" d="M601.5,133.5c-0.1-0.1-0.8-1.8-0.8-1.8
		s0.9,0.6,3.3,0.9c0.5,0.1,10.9,0.7,21.7,1.3l0,0c10.9,0.6,21.2,1.2,21.7,1.2c2.3,0,3.3-0.5,3.3-0.5s-0.9,1.6-1,1.7l-24.1-1.4l0,0
		L601.5,133.5z"/>
	<g id="XMLID_3691_">
		<g id="XMLID_3698_">
			
				<rect id="XMLID_3703_" x="602.4" y="144.3" transform="matrix(-0.9984 -5.645886e-02 5.645886e-02 -0.9984 1197.3474 342.4193)" fill-rule="evenodd" clip-rule="evenodd" fill="#CA2D36" width="2.2" height="20.1"/>
			
				<rect id="XMLID_3702_" x="603.5" y="144.3" transform="matrix(-0.9984 -5.646148e-02 5.646148e-02 -0.9984 1198.4319 342.513)" fill-rule="evenodd" clip-rule="evenodd" fill="#B4262B" width="1.1" height="20.1"/>
			
				<rect id="XMLID_3701_" x="601.8" y="143.5" transform="matrix(-0.9984 -5.647767e-02 5.647767e-02 -0.9984 1199.0425 322.4418)" fill-rule="evenodd" clip-rule="evenodd" fill="#CA2D36" width="4.6" height="1.6"/>
			
				<rect id="XMLID_3700_" x="604.6" y="143.6" transform="matrix(-0.9984 -5.645387e-02 5.645387e-02 -0.9984 1201.35 322.7359)" fill-rule="evenodd" clip-rule="evenodd" fill="#B4262B" width="1.2" height="1.6"/>
			
				<polygon id="XMLID_3699_" fill-rule="evenodd" clip-rule="evenodd" fill="#231F20" stroke="#231F20" stroke-width="9.980000e-02" stroke-miterlimit="2.6131" points="
				602.6,142.2 605.8,142.4 607.3,143.9 600.9,143.5 			"/>
		</g>
		<g id="XMLID_3692_">
			
				<rect id="XMLID_3697_" x="644.4" y="146.6" transform="matrix(-0.9984 -5.645886e-02 5.645886e-02 -0.9984 1281.0278 349.529)" fill-rule="evenodd" clip-rule="evenodd" fill="#CA2D36" width="2.2" height="20.1"/>
			
				<rect id="XMLID_3696_" x="645.5" y="146.7" transform="matrix(-0.9984 -5.646053e-02 5.646053e-02 -0.9984 1282.1127 349.6221)" fill-rule="evenodd" clip-rule="evenodd" fill="#B4262B" width="1.1" height="20.1"/>
			
				<rect id="XMLID_3695_" x="643.7" y="145.9" transform="matrix(-0.9984 -5.647767e-02 5.647767e-02 -0.9984 1282.7228 329.5524)" fill-rule="evenodd" clip-rule="evenodd" fill="#CA2D36" width="4.6" height="1.6"/>
			
				<rect id="XMLID_3694_" x="646.6" y="146" transform="matrix(-0.9984 -5.653551e-02 5.653551e-02 -0.9984 1285.0155 329.8975)" fill-rule="evenodd" clip-rule="evenodd" fill="#B4262B" width="1.2" height="1.6"/>
			
				<polygon id="XMLID_3693_" fill-rule="evenodd" clip-rule="evenodd" fill="#231F20" stroke="#231F20" stroke-width="9.980000e-02" stroke-miterlimit="2.6131" points="
				644.5,144.6 647.7,144.8 649.2,146.2 642.9,145.9 			"/>
		</g>
	</g>
</g>
<g id="XMLID_1971_">
	<path id="XMLID_946_" fill-rule="evenodd" clip-rule="evenodd" fill="#876E6A" d="M478.6,154.4c0-0.4,4.9-11,4.9-11l-2.3-2.1
		l15.3-2.6l70.7,5.1l-2.8,5.7l13.3,3.1l2.9,4.9L478.6,154.4z"/>
	<polygon id="XMLID_945_" fill-rule="evenodd" clip-rule="evenodd" fill="#876E6A" points="572,151.3 572.1,149.2 569.3,149.1 
		576,146.2 593.1,148 592.9,157.1 592.7,161 582.2,156.3 	"/>
	<g id="XMLID_1981_">
		<path id="XMLID_944_" fill-rule="evenodd" clip-rule="evenodd" fill="#E6E7E8" d="M575.2,150.2l-9.2-11c4,0.5,10.8,1.4,14.2,3.3
			c2.2-2.8,18.7-2.4,23.1-2l-13.2,13l-2.3,0l-2.5-5l-7.2-0.1l-0.2,2.3L575.2,150.2z"/>
		<path id="XMLID_943_" fill-rule="evenodd" clip-rule="evenodd" fill="#DDDDDF" d="M575.2,150.2l2.7,0.4l0.1-0.6l0.2-1.6l7.2,0.1
			l1.9,3.8l0.6,1.2l2.3,0c-0.1-0.1-0.1-0.2-0.2-0.3c-3.3-5-6.3-8.2-9.7-10.8c-2.6,2.5-3.8,4.9-4.9,7.4
			C575.3,149.9,575.2,150.1,575.2,150.2z"/>
	</g>
	<g id="XMLID_1977_">
		<path id="XMLID_942_" fill-rule="evenodd" clip-rule="evenodd" fill="#E6E7E8" d="M493.3,142c-0.3-0.1-2.3-0.1-2.3-0.1
			c-0.3-3.9-1.8-9.2-9.3-16.4c0.3-0.7,18.7,0.9,22,3.1c-1-3-2-6.6-3.6-9.3c13.3,3.2,15.8,5.1,22.5,13.9c-1.7-9.7-2.1-12.3-9-22.4
			c14.2,1.3,25.1,12.4,31.3,23.5c10.1-5.3,16.2-4.3,27.4-3c0,0-7.9,18.9-7.9,18.6s-3.3,0-3.3,0l-2.2-4.2l-11.5,0.8l-0.3,3.1
			l-1.3-0.1l0.1-2.9l-10.1-2.8l-7.1,5.1l-6.1-0.3l-1.1-4.8l-10.4-1.7l-2.5,4.7l-4.2-0.5l-1.3-5.7l-8.4-1.8L493.3,142z"/>
		<path id="XMLID_941_" fill-rule="evenodd" clip-rule="evenodd" fill="#DDDDDF" d="M500.2,119.3c1.6,2.8,2.6,6.3,3.6,9.3l3.2,17.7
			l1.9,0.2l2.5-4.7l10.4,1.7l1.1,4.8l3.4,0.2l-3.6-15.4C516.1,124.4,513.5,122.5,500.2,119.3z"/>
		<path id="XMLID_940_" fill-rule="evenodd" clip-rule="evenodd" fill="#DDDDDF" d="M536.1,143.6l10.1,2.8l-0.1,2.9l1.3,0.1l0.3-3.1
			l11.5-0.8l2.2,4.2c0,0,2.9-0.3,3.3-0.1c-0.5-0.7-4.9-7.2-9.7-11.2c-5.1-4.2-9.8-4.2-9.8-4.2l-16,14.5L536.1,143.6z"/>
	</g>
	<path id="XMLID_939_" fill-rule="evenodd" clip-rule="evenodd" fill="#C5A6A3" d="M572.6,154.3l3.5,0.1l-0.1,2.2l16.8,0.5l0.1-3.2
		l-12.2-3.9l-61.8-2l-6.8-2.6l-5.5,0.4l-10-4.5l-7.6-0.2l-4,1.8l-6.6-0.2l-0.2,2.7l-2.1-0.1l-0.2,3.1l-2.9,0.1c0,0-0.1,3.3-0.2,5.1
		l8,0.2l0.1-2.9l2.3,0.1l-0.1,2.9l31.1,0.9l0-1.7l5.3,0.2l0,1.7l8.6,0.2l0.1-1.8l3.8,0.1l-0.1,1.8l0.5,0l0.1-1.8l3.8,0.1l-0.1,1.8
		l0.5,0l0.1-1.8l3.8,0.1l-0.1,1.8l0.5,0l0.1-1.8l3.8,0.1l-0.1,1.8l0.5,0l0.1-1.8l3.8,0.1l-0.1,1.8l0.5,0l0.1-1.8l3.8,0.1l-0.1,1.8
		l0.5,0l0.1-1.8l3.8,0.1l-0.1,1.8l0.5,0l0.1-1.8l3.8,0.1l-0.1,1.8l0.5,0l0.1-1.8l3.8,0.1l-0.1,1.8l5.8,0.2L572.6,154.3z"/>
	
		<rect id="XMLID_938_" x="451.4" y="155" transform="matrix(-0.9996 -2.893727e-02 2.893727e-02 -0.9996 1039.4799 328.9853)" fill-rule="evenodd" clip-rule="evenodd" fill="#F8A98E" width="141.4" height="3.9"/>
	
		<rect id="XMLID_937_" x="521.1" y="87.2" transform="matrix(2.890978e-02 -0.9996 0.9996 2.890978e-02 349.1149 675.2573)" fill-rule="evenodd" clip-rule="evenodd" fill="#DE9880" width="2" height="141.4"/>
	
		<rect id="XMLID_936_" x="496.3" y="150.4" transform="matrix(-0.9996 -2.893798e-02 2.893798e-02 -0.9996 1034.6782 316.2336)" fill-rule="evenodd" clip-rule="evenodd" fill="#876E6A" width="46.6" height="0.4"/>
	
		<rect id="XMLID_935_" x="563" y="152" transform="matrix(-0.9996 -2.894155e-02 2.894155e-02 -0.9996 1139.3878 320.8351)" fill-rule="evenodd" clip-rule="evenodd" fill="#876E6A" width="18" height="0.4"/>
</g>
<path fill="#293050" d="M684,168c-86.8-8-208-13-342-13c-134,0-255.2,5-342,13v26.1h684V168z"/>
<path fill="#F1F2F2" d="M235.8,76c0-1.6-4.3-4.9-8.3-3.2c-1.1-1.3-3-2.1-5.1-2.1c-0.1,0-0.2,0-0.4,0c-0.1-0.2-0.2-0.4-0.3-0.6
	c-1-2.1-3.2-3.6-5.7-3.6c-1.2,0-2.4,0.4-3.3,1c-0.9-1.1-2.3-1.8-3.8-1.8c-0.2,0-0.4,0-0.6,0c-0.1,0-0.2,0-0.4,0.1
	c-0.1-0.5-0.2-1-0.4-1.4c-0.8-1.7-2.5-3-4.6-3c-0.3,0-0.6,0-0.9,0.1c-0.1,0-0.2,0-0.3,0.1c-0.1-0.5-0.3-1.1-0.5-1.6
	c-1.1-2.3-3.4-3.8-6.1-3.8c-2.4,0-4.4,1.2-5.6,3c-0.7-0.3-1.5-0.4-2.3-0.4c-3.3,0-6,2.5-6.3,5.8c-0.1,0-0.3,0-0.5,0
	c-3.6,0-6.6,2.6-7.3,6c-0.6,0.2-1.1,0.5-1.6,0.8c-0.8-0.3-1.7-0.5-2.7-0.5c-2.8,0-5.2,1.5-5.9,3.4c-3,0.2-5.5,0.9-6.5,1.8H235.8z"/>
<path fill="#F1F2F2" d="M553,98.6c0-1.6-4.3-4.9-8.3-3.2c-1.1-1.3-3-2.1-5.1-2.1c-0.1,0-0.2,0-0.4,0c-0.1-0.2-0.2-0.4-0.3-0.6
	c-1-2.1-3.2-3.6-5.7-3.6c-1.2,0-2.4,0.4-3.3,1c-0.9-1.1-2.3-1.8-3.8-1.8c-0.2,0-0.4,0-0.6,0c-0.1,0-0.2,0-0.4,0.1
	c-0.1-0.5-0.2-1-0.4-1.4c-0.8-1.7-2.5-3-4.6-3c-0.3,0-0.6,0-0.9,0.1c-0.1,0-0.2,0-0.3,0.1c-0.1-0.5-0.3-1.1-0.5-1.6
	c-1.1-2.3-3.4-3.8-6.1-3.8c-2.4,0-4.4,1.2-5.6,3c-0.7-0.3-1.5-0.4-2.3-0.4c-3.3,0-6,2.5-6.3,5.8c-0.1,0-0.3,0-0.5,0
	c-3.6,0-6.6,2.6-7.3,6c-0.6,0.2-1.1,0.5-1.6,0.8c-0.8-0.3-1.7-0.5-2.7-0.5c-2.8,0-5.2,1.5-5.9,3.4c-3,0.2-5.5,0.9-6.5,1.8H553z"/>
<path fill="#F1F2F2" d="M86.8,102c0-1.4-3.7-4.2-7.2-2.7c-0.9-1.1-2.6-1.8-4.4-1.8c-0.1,0-0.2,0-0.3,0c-0.1-0.2-0.1-0.4-0.2-0.6
	c-0.9-1.9-2.8-3.1-5-3.1c-1.1,0-2.1,0.3-2.9,0.8c-0.8-1-2-1.6-3.3-1.6c-0.2,0-0.4,0-0.5,0c-0.1,0-0.2,0-0.3,0
	c-0.1-0.4-0.2-0.8-0.3-1.2c-0.7-1.5-2.2-2.6-3.9-2.6c-0.3,0-0.5,0-0.8,0.1c-0.1,0-0.2,0-0.2,0.1c-0.1-0.5-0.3-0.9-0.5-1.4
	c-1-2-3-3.3-5.3-3.3c-2,0-3.8,1-4.9,2.6c-0.6-0.2-1.3-0.4-2-0.4c-2.9,0-5.2,2.2-5.5,5c-0.1,0-0.3,0-0.4,0c-3.1,0-5.7,2.2-6.3,5.2
	c-0.5,0.2-1,0.4-1.4,0.7c-0.7-0.3-1.5-0.4-2.4-0.4c-2.5,0-4.5,1.3-5.1,3c-2.6,0.2-4.7,0.8-5.6,1.6H86.8z"/>
<path fill="#F1F2F2" d="M660.7,75.7c0-1.4-3.7-4.2-7.2-2.7c-0.9-1.1-2.6-1.8-4.4-1.8c-0.1,0-0.2,0-0.3,0c-0.1-0.2-0.1-0.4-0.2-0.6
	c-0.9-1.9-2.8-3.1-5-3.1c-1.1,0-2.1,0.3-2.9,0.8c-0.8-1-2-1.6-3.3-1.6c-0.2,0-0.4,0-0.5,0c-0.1,0-0.2,0-0.3,0
	c-0.1-0.4-0.2-0.8-0.3-1.2c-0.7-1.5-2.2-2.6-3.9-2.6c-0.3,0-0.5,0-0.8,0.1c-0.1,0-0.2,0-0.2,0.1c-0.1-0.5-0.3-0.9-0.5-1.4
	c-1-2-3-3.3-5.3-3.3c-2,0-3.8,1-4.9,2.6c-0.6-0.2-1.3-0.4-2-0.4c-2.9,0-5.2,2.2-5.5,5c-0.1,0-0.3,0-0.4,0c-3.1,0-5.7,2.2-6.3,5.2
	c-0.5,0.2-1,0.4-1.4,0.7c-0.7-0.3-1.5-0.4-2.4-0.4c-2.5,0-4.5,1.3-5.1,3c-2.6,0.2-4.7,0.8-5.6,1.6H660.7z"/>
</svg>
